<svg viewBox="0 0 107 43" fill="none" xmlns="http://www.w3.org/2000/svg">
<path d="M83.7665 42.7337L90.5082 29.8701L94.5081 23.335L98.9775 13.7389H106.846L91.6161 42.7337H83.7665Z" fill="#1E51B3"/>
<path d="M11.5547 33.5695C10.0774 33.5695 8.6815 33.3066 7.36697 32.7808C6.06496 32.255 4.91318 31.5226 3.91163 30.5837C2.91008 29.6447 2.12137 28.5618 1.54548 27.3349C0.969586 26.0955 0.681641 24.7747 0.681641 23.3725C0.681641 22.033 0.950807 20.756 1.48914 19.5416C2.03999 18.3147 2.80367 17.2193 3.78018 16.2553C4.75669 15.2913 5.90221 14.5339 7.21674 13.983C8.53127 13.4197 9.96474 13.138 11.5171 13.138C12.7566 13.138 13.9459 13.3132 15.0852 13.6638C16.2369 14.0018 17.1446 14.4275 17.8081 14.9408L15.5358 19.5604C14.7596 19.0095 13.7831 18.7341 12.6063 18.7341C11.5672 18.7341 10.6971 18.9657 9.99604 19.4289C9.29495 19.8922 8.76914 20.4806 8.4186 21.1942C8.08058 21.9078 7.91156 22.6276 7.91156 23.3538C7.91156 24.1926 8.10561 24.9625 8.49371 25.6636C8.88181 26.3647 9.43266 26.928 10.1463 27.3537C10.8599 27.7668 11.6924 27.9734 12.6439 27.9734C13.2448 27.9734 13.7957 27.8983 14.2964 27.748C14.7972 27.5853 15.2103 27.385 15.5358 27.1471L17.8081 31.7668C17.1321 32.2675 16.2307 32.6932 15.1039 33.0437C13.9772 33.3943 12.7941 33.5695 11.5547 33.5695Z" fill="#0D347C"/>
<path d="M20.7611 32.9686V0.668701H27.6155V32.9686H20.7611Z" fill="#1E51B3"/>
<path fill-rule="evenodd" clip-rule="evenodd" d="M40.7828 33.5695C39.0175 33.5695 37.4151 33.1314 35.9753 32.255C34.5356 31.3661 33.3901 30.1518 32.5388 28.6119C31.6875 27.0595 31.2618 25.2943 31.2618 23.3162C31.2618 21.4007 31.6687 19.6793 32.4824 18.152C33.2962 16.6121 34.4167 15.3915 35.8439 14.4901C37.2711 13.5887 38.9174 13.138 40.7828 13.138C41.9972 13.138 43.1489 13.3445 44.2381 13.7577C45.3398 14.1708 46.2725 14.753 47.0362 15.5041V13.7389H53.8905V32.9686H47.0362V30.978C46.1348 31.8294 45.1583 32.4741 44.1067 32.9123C43.0676 33.3505 41.9596 33.5695 40.7828 33.5695ZM45.102 27.2035C44.4509 27.579 43.6998 27.7668 42.8485 27.7668C42.0097 27.7668 41.2585 27.579 40.595 27.2035C39.944 26.8154 39.4307 26.2895 39.0551 25.626C38.6795 24.95 38.4917 24.1926 38.4917 23.3538C38.4917 22.5024 38.6795 21.745 39.0551 21.0815C39.4432 20.418 39.9628 19.8984 40.6138 19.5228C41.2773 19.1347 42.0222 18.9407 42.8485 18.9407C43.6873 18.9407 44.4322 19.1347 45.0832 19.5228C45.7342 19.8984 46.2412 20.418 46.6043 21.0815C46.9799 21.745 47.1676 22.5024 47.1676 23.3538C47.1676 24.2051 46.9861 24.9625 46.6231 25.626C46.26 26.2895 45.753 26.8154 45.102 27.2035Z" fill="#1E51B3"/>
<path fill-rule="evenodd" clip-rule="evenodd" d="M59.0732 42.7337V13.7389H65.9276V15.5041C66.7038 14.753 67.624 14.1708 68.6881 13.7577C69.7522 13.3445 70.8852 13.138 72.0871 13.138C73.94 13.138 75.5863 13.5824 77.026 14.4713C78.4782 15.3602 79.6175 16.5745 80.4438 18.1144C81.2826 19.6543 81.702 21.4007 81.702 23.3538C81.702 25.2817 81.2888 27.0157 80.4626 28.5555C79.6363 30.0954 78.5095 31.3161 77.0823 32.2175C75.6551 33.1188 74.0464 33.5695 72.2561 33.5695C71.0793 33.5695 69.9463 33.3505 68.8571 32.9123C67.7805 32.4616 66.8039 31.8168 65.9276 30.978V42.7337H59.0732ZM72.3876 27.2035C71.7366 27.579 70.9917 27.7668 70.1529 27.7668C69.3141 27.7668 68.5629 27.579 67.8994 27.2035C67.2359 26.8279 66.7163 26.3083 66.3407 25.6448C65.9651 24.9688 65.7774 24.2113 65.7774 23.3725C65.7774 22.5212 65.9651 21.7638 66.3407 21.1003C66.7288 20.4367 67.2484 19.9109 67.8994 19.5228C68.5629 19.1347 69.3078 18.9407 70.1341 18.9407C70.9729 18.9407 71.7115 19.1347 72.35 19.5228C73.001 19.9109 73.5143 20.4367 73.8899 21.1003C74.278 21.7638 74.472 22.5275 74.472 23.3913C74.472 24.2301 74.2843 24.9813 73.9087 25.6448C73.5456 26.2958 73.0386 26.8154 72.3876 27.2035Z" fill="#1E51B3"/>
<path d="M93.6917 22.6546L89.6918 29.1897L80.5464 13.0585H88.4148L93.6917 22.6546Z" fill="#0D347C"/>
</svg>
