<svg width="18" height="19" viewBox="0 0 18 19" fill="none" xmlns="http://www.w3.org/2000/svg">
<g filter="url(#filter0_dd_650_96125)">
<path d="M1.52941 9.00002C1.52941 8.61769 1.52941 8.42653 1.53688 8.26497C1.70387 4.65308 4.59423 1.76271 8.20613 1.59573C8.36768 1.58826 8.55885 1.58826 8.94118 1.58826V1.58826C9.3235 1.58826 9.51467 1.58826 9.67622 1.59573C13.2881 1.76271 16.1785 4.65308 16.3455 8.26497C16.3529 8.42653 16.3529 8.61769 16.3529 9.00002V9.00002C16.3529 9.38235 16.3529 9.57351 16.3455 9.73507C16.1785 13.347 13.2881 16.2373 9.67622 16.4043C9.51467 16.4118 9.3235 16.4118 8.94118 16.4118V16.4118C8.55885 16.4118 8.36768 16.4118 8.20613 16.4043C4.59423 16.2373 1.70387 13.347 1.53688 9.73507C1.52941 9.57351 1.52941 9.38235 1.52941 9.00002V9.00002Z" fill="url(#paint0_linear_650_96125)"/>
<path d="M9.86439 13.0518C9.28096 13.0518 8.72966 12.9478 8.2105 12.7398C7.69628 12.5318 7.2414 12.2421 6.84585 11.8707C6.4503 11.4993 6.1388 11.071 5.91136 10.5857C5.68392 10.0955 5.57019 9.57304 5.57019 9.01843C5.57019 8.48857 5.6765 7.98347 5.88911 7.50313C6.10666 7.01784 6.40827 6.58455 6.79393 6.20325C7.17959 5.82195 7.632 5.52236 8.15116 5.30447C8.67032 5.08163 9.23646 4.97021 9.84956 4.97021C10.3391 4.97021 10.8088 5.03954 11.2587 5.1782C11.7136 5.3119 12.0721 5.48026 12.3341 5.68329L11.4367 7.51056C11.1302 7.29268 10.7445 7.18373 10.2797 7.18373C9.86934 7.18373 9.5257 7.27534 9.24882 7.45857C8.97193 7.64179 8.76427 7.87453 8.62583 8.15679C8.49233 8.43905 8.42558 8.72379 8.42558 9.011C8.42558 9.34278 8.50222 9.64732 8.65549 9.92463C8.80877 10.2019 9.02632 10.4248 9.30815 10.5931C9.58998 10.7566 9.91878 10.8383 10.2946 10.8383C10.5319 10.8383 10.7494 10.8086 10.9472 10.7491C11.145 10.6848 11.3082 10.6055 11.4367 10.5114L12.3341 12.3387C12.0671 12.5368 11.7111 12.7051 11.2661 12.8438C10.8211 12.9825 10.3539 13.0518 9.86439 13.0518Z" fill="url(#paint1_linear_650_96125)"/>
</g>
<defs>
<filter id="filter0_dd_650_96125" x="0.139705" y="0.661786" width="17.6029" height="17.6029" filterUnits="userSpaceOnUse" color-interpolation-filters="sRGB">
<feFlood flood-opacity="0" result="BackgroundImageFix"/>
<feColorMatrix in="SourceAlpha" type="matrix" values="0 0 0 0 0 0 0 0 0 0 0 0 0 0 0 0 0 0 127 0" result="hardAlpha"/>
<feOffset dy="0.463235"/>
<feGaussianBlur stdDeviation="0.463235"/>
<feColorMatrix type="matrix" values="0 0 0 0 0.0627451 0 0 0 0 0.0941176 0 0 0 0 0.156863 0 0 0 0.06 0"/>
<feBlend mode="normal" in2="BackgroundImageFix" result="effect1_dropShadow_650_96125"/>
<feColorMatrix in="SourceAlpha" type="matrix" values="0 0 0 0 0 0 0 0 0 0 0 0 0 0 0 0 0 0 127 0" result="hardAlpha"/>
<feOffset dy="0.463235"/>
<feGaussianBlur stdDeviation="0.694853"/>
<feColorMatrix type="matrix" values="0 0 0 0 0.0627451 0 0 0 0 0.0941176 0 0 0 0 0.156863 0 0 0 0.1 0"/>
<feBlend mode="normal" in2="effect1_dropShadow_650_96125" result="effect2_dropShadow_650_96125"/>
<feBlend mode="normal" in="SourceGraphic" in2="effect2_dropShadow_650_96125" result="shape"/>
</filter>
<linearGradient id="paint0_linear_650_96125" x1="8.94118" y1="1.58826" x2="8.94118" y2="16.4118" gradientUnits="userSpaceOnUse">
<stop stop-color="#F5F8FF"/>
<stop offset="1" stop-color="#D2E1FF"/>
</linearGradient>
<linearGradient id="paint1_linear_650_96125" x1="8.95215" y1="4.97021" x2="8.95215" y2="13.0518" gradientUnits="userSpaceOnUse">
<stop stop-color="#1E51B2"/>
<stop offset="1" stop-color="#0D347C"/>
</linearGradient>
</defs>
</svg>