<svg width="1934" height="698" viewBox="0 0 1934 698" fill="none" xmlns="http://www.w3.org/2000/svg">
<path d="M217.202 119.166L231.419 91.9586L239.854 78.1367L249.279 57.8407H265.871L233.755 119.166H217.202Z" fill="white" fill-opacity="0.75"/>
<path d="M64.9248 99.7831C61.8096 99.7831 58.8659 99.2271 56.0939 98.1149C53.3482 97.0028 50.9194 95.4538 48.8074 93.4679C46.6954 91.482 45.0321 89.1916 43.8177 86.5967C42.6033 83.9753 41.9961 81.1818 41.9961 78.2161C41.9961 75.3829 42.5637 72.6821 43.6989 70.1136C44.8605 67.5187 46.471 65.2018 48.5302 63.163C50.5894 61.1241 53.005 59.5221 55.7771 58.3571C58.5491 57.1655 61.572 56.5698 64.8456 56.5698C67.4592 56.5698 69.9673 56.9405 72.3697 57.6819C74.7985 58.3968 76.7126 59.2971 78.1118 60.3827L73.3201 70.1534C71.6833 68.9883 69.6241 68.4058 67.1424 68.4058C64.9512 68.4058 63.1164 68.8956 61.638 69.8753C60.1595 70.855 59.0507 72.0995 58.3115 73.6088C57.5987 75.1181 57.2423 76.6407 57.2423 78.1764C57.2423 79.9505 57.6515 81.5789 58.4699 83.0618C59.2883 84.5446 60.4499 85.7361 61.9548 86.6364C63.4596 87.5102 65.2152 87.9471 67.2216 87.9471C68.4888 87.9471 69.6505 87.7882 70.7065 87.4705C71.7625 87.1262 72.6337 86.7026 73.3201 86.1995L78.1118 95.9702C76.6862 97.0293 74.7853 97.9296 72.4093 98.671C70.0333 99.4124 67.5384 99.7831 64.9248 99.7831Z" fill="white" fill-opacity="0.75"/>
<path d="M84.339 98.5121V30.1969H98.7931V98.5121H84.339Z" fill="white" fill-opacity="0.75"/>
<path fill-rule="evenodd" clip-rule="evenodd" d="M126.56 99.7831C122.837 99.7831 119.458 98.8563 116.422 97.0028C113.386 95.1228 110.971 92.5544 109.175 89.2975C107.38 86.0141 106.482 82.2806 106.482 78.097C106.482 74.0457 107.34 70.4049 109.056 67.1745C110.773 63.9176 113.135 61.3359 116.145 59.4295C119.155 57.523 122.626 56.5698 126.56 56.5698C129.121 56.5698 131.55 57.0067 133.846 57.8805C136.17 58.7542 138.136 59.9855 139.747 61.5742V57.8407H154.201V98.5121H139.747V94.302C137.846 96.1026 135.787 97.4662 133.569 98.393C131.378 99.3197 129.042 99.7831 126.56 99.7831ZM135.668 86.3186C134.295 87.113 132.711 87.5102 130.916 87.5102C129.147 87.5102 127.563 87.113 126.164 86.3186C124.791 85.4978 123.709 84.3857 122.917 82.9823C122.125 81.5525 121.729 79.9505 121.729 78.1764C121.729 76.3759 122.125 74.7739 122.917 73.3705C123.735 71.9672 124.831 70.8683 126.204 70.0739C127.603 69.2531 129.174 68.8427 130.916 68.8427C132.685 68.8427 134.256 69.2531 135.628 70.0739C137.001 70.8683 138.07 71.9672 138.836 73.3705C139.628 74.7739 140.024 76.3759 140.024 78.1764C140.024 79.977 139.641 81.5789 138.876 82.9823C138.11 84.3857 137.041 85.4978 135.668 86.3186Z" fill="white" fill-opacity="0.75"/>
<path fill-rule="evenodd" clip-rule="evenodd" d="M165.13 119.166V57.8407H179.584V61.5742C181.221 59.9855 183.162 58.7542 185.406 57.8805C187.65 57.0067 190.039 56.5698 192.573 56.5698C196.481 56.5698 199.952 57.5097 202.988 59.3897C206.051 61.2697 208.453 63.8382 210.196 67.0951C211.964 70.3519 212.849 74.0457 212.849 78.1764C212.849 82.2542 211.978 85.9215 210.235 89.1784C208.493 92.4352 206.117 95.0169 203.107 96.9234C200.097 98.8299 196.705 99.7831 192.93 99.7831C190.448 99.7831 188.059 99.3197 185.762 98.393C183.492 97.4397 181.432 96.0761 179.584 94.302V119.166H165.13ZM193.207 86.3186C191.834 87.113 190.263 87.5102 188.495 87.5102C186.726 87.5102 185.142 87.113 183.742 86.3186C182.343 85.5243 181.248 84.4254 180.456 83.022C179.664 81.5922 179.268 79.9902 179.268 78.2161C179.268 76.4156 179.664 74.8136 180.456 73.4102C181.274 72.0069 182.37 70.8948 183.742 70.0739C185.142 69.2531 186.712 68.8427 188.455 68.8427C190.224 68.8427 191.781 69.2531 193.128 70.0739C194.501 70.8948 195.583 72.0069 196.375 73.4102C197.193 74.8136 197.603 76.4288 197.603 78.2559C197.603 80.0299 197.207 81.6187 196.415 83.022C195.649 84.3989 194.58 85.4978 193.207 86.3186Z" fill="white" fill-opacity="0.75"/>
<path d="M238.132 76.6976L229.697 90.5196L210.412 56.4017H227.004L238.132 76.6976Z" fill="white" fill-opacity="0.75"/>
<path d="M752.003 201.483C744.358 201.483 737.766 198.924 732.226 193.806L739.029 176.118C742.787 179.357 745.865 180.977 748.262 180.977C750.173 180.977 751.696 180.167 752.829 178.548C753.996 176.928 754.579 174.757 754.579 172.036V119.75H775.96V177.381C775.96 185.059 773.822 191.003 769.545 195.215C765.302 199.394 759.454 201.483 752.003 201.483ZM817.746 201.483C812.044 201.483 806.893 200.366 802.293 198.13C797.725 195.863 794.097 192.753 791.408 188.801C788.752 184.816 787.424 180.232 787.424 175.049C787.424 169.866 788.752 165.298 791.408 161.346C794.097 157.361 797.725 154.251 802.293 152.016C806.893 149.748 812.044 148.614 817.746 148.614C823.447 148.614 828.582 149.748 833.149 152.016C837.75 154.251 841.378 157.361 844.034 161.346C846.723 165.298 848.067 169.866 848.067 175.049C848.067 180.232 846.723 184.816 844.034 188.801C841.378 192.753 837.75 195.863 833.149 198.13C828.582 200.366 823.447 201.483 817.746 201.483ZM817.746 184.379C819.398 184.379 820.92 183.99 822.313 183.212C823.706 182.403 824.808 181.301 825.618 179.908C826.46 178.515 826.881 176.895 826.881 175.049C826.881 173.202 826.46 171.583 825.618 170.19C824.808 168.764 823.706 167.663 822.313 166.885C820.92 166.108 819.398 165.719 817.746 165.719C816.093 165.719 814.571 166.108 813.178 166.885C811.785 167.663 810.667 168.764 809.825 170.19C809.015 171.583 808.61 173.202 808.61 175.049C808.61 176.895 809.015 178.515 809.825 179.908C810.667 181.301 811.785 182.403 813.178 183.212C814.571 183.99 816.093 184.379 817.746 184.379ZM858.336 199.928V150.169H878.551V199.928H858.336ZM868.444 139.528C866.306 139.528 864.346 139.009 862.564 137.973C860.782 136.904 859.357 135.478 858.288 133.696C857.251 131.915 856.733 129.955 856.733 127.817C856.733 125.679 857.251 123.735 858.288 121.986C859.357 120.204 860.782 118.795 862.564 117.758C864.346 116.689 866.306 116.154 868.444 116.154C870.582 116.154 872.526 116.689 874.275 117.758C876.057 118.795 877.466 120.204 878.502 121.986C879.571 123.735 880.106 125.679 880.106 127.817C880.106 129.955 879.571 131.915 878.502 133.696C877.466 135.478 876.057 136.904 874.275 137.973C872.526 139.009 870.582 139.528 868.444 139.528ZM893.832 199.928V150.169H914.047V154.834C916.347 152.858 918.938 151.336 921.821 150.267C924.737 149.165 927.685 148.614 930.665 148.614C934.455 148.614 937.841 149.473 940.821 151.19C943.834 152.907 946.215 155.239 947.964 158.187C949.714 161.103 950.588 164.423 950.588 168.149V199.928H930.374V172.522C930.374 170.028 929.629 168.035 928.138 166.545C926.648 165.023 924.672 164.261 922.21 164.261C920.59 164.261 919.165 164.601 917.934 165.282C916.703 165.962 915.747 166.918 915.067 168.149C914.387 169.38 914.047 170.837 914.047 172.522V199.928H893.832ZM1017.43 201.483C1011.73 201.483 1006.58 200.366 1001.98 198.13C997.411 195.863 993.783 192.753 991.094 188.801C988.438 184.816 987.109 180.232 987.109 175.049C987.109 169.866 988.438 165.298 991.094 161.346C993.783 157.361 997.411 154.251 1001.98 152.016C1006.58 149.748 1011.73 148.614 1017.43 148.614C1023.13 148.614 1028.27 149.748 1032.84 152.016C1037.44 154.251 1041.06 157.361 1043.72 161.346C1046.41 165.298 1047.75 169.866 1047.75 175.049C1047.75 180.232 1046.41 184.816 1043.72 188.801C1041.06 192.753 1037.44 195.863 1032.84 198.13C1028.27 200.366 1023.13 201.483 1017.43 201.483ZM1017.43 184.379C1019.08 184.379 1020.61 183.99 1022 183.212C1023.39 182.403 1024.49 181.301 1025.3 179.908C1026.15 178.515 1026.57 176.895 1026.57 175.049C1026.57 173.202 1026.15 171.583 1025.3 170.19C1024.49 168.764 1023.39 167.663 1022 166.885C1020.61 166.108 1019.08 165.719 1017.43 165.719C1015.78 165.719 1014.26 166.108 1012.86 166.885C1011.47 167.663 1010.35 168.764 1009.51 170.19C1008.7 171.583 1008.3 173.202 1008.3 175.049C1008.3 176.895 1008.7 178.515 1009.51 179.908C1010.35 181.301 1011.47 182.403 1012.86 183.212C1014.26 183.99 1015.78 184.379 1017.43 184.379ZM1085.57 201.483C1075.43 201.483 1068.09 199.621 1063.56 195.895C1059.05 192.17 1056.8 186.16 1056.8 177.867V150.169H1077.02V172.814C1077.02 177.381 1077.65 180.588 1078.91 182.435C1080.21 184.249 1082.44 185.156 1085.62 185.156C1088.76 185.156 1090.96 184.249 1092.23 182.435C1093.49 180.588 1094.12 177.381 1094.12 172.814V150.169H1114.34V177.867C1114.34 186.16 1112.07 192.17 1107.53 195.895C1103.03 199.621 1095.71 201.483 1085.57 201.483ZM1128.25 199.928V150.169H1148.47V157.167C1150.54 154.478 1152.96 152.388 1155.71 150.898C1158.49 149.376 1161.36 148.614 1164.31 148.614C1166.22 148.614 1168.25 148.938 1170.38 149.586C1172.52 150.234 1174.29 151.076 1175.68 152.113L1167.23 169.121C1166.03 168.213 1164.6 167.485 1162.95 166.934C1161.33 166.383 1159.84 166.108 1158.48 166.108C1156.76 166.108 1155.13 166.561 1153.57 167.468C1152.05 168.343 1150.82 169.493 1149.88 170.918C1148.94 172.344 1148.47 173.883 1148.47 175.535V199.928H1128.25ZM579.568 308.928V228.75H604.253C609.954 228.75 615.251 229.771 620.142 231.812C625.034 233.853 629.31 236.703 632.971 240.364C636.664 244.025 639.531 248.301 641.572 253.192C643.645 258.052 644.682 263.3 644.682 268.937C644.682 274.573 643.661 279.821 641.62 284.681C639.58 289.54 636.713 293.784 633.02 297.412C629.359 301.04 625.067 303.875 620.142 305.916C615.251 307.924 609.954 308.928 604.253 308.928H579.568ZM600.948 289.783H601.726C604.641 289.783 607.298 289.281 609.695 288.276C612.125 287.24 614.214 285.798 615.963 283.952C617.745 282.073 619.122 279.854 620.094 277.294C621.066 274.735 621.552 271.917 621.552 268.839C621.552 265.794 621.066 262.992 620.094 260.433C619.122 257.874 617.745 255.655 615.963 253.776C614.214 251.897 612.125 250.455 609.695 249.451C607.298 248.414 604.641 247.896 601.726 247.896H600.948V289.783ZM655.117 308.928V259.169H675.332V308.928H655.117ZM665.224 248.528C663.086 248.528 661.126 248.009 659.345 246.973C657.563 245.904 656.138 244.478 655.068 242.696C654.032 240.915 653.514 238.955 653.514 236.817C653.514 234.679 654.032 232.735 655.068 230.986C656.138 229.204 657.563 227.795 659.345 226.758C661.126 225.689 663.086 225.154 665.224 225.154C667.362 225.154 669.306 225.689 671.055 226.758C672.837 227.795 674.246 229.204 675.283 230.986C676.352 232.735 676.887 234.679 676.887 236.817C676.887 238.955 676.352 240.915 675.283 242.696C674.246 244.478 672.837 245.904 671.055 246.973C669.306 248.009 667.362 248.528 665.224 248.528ZM705.531 310.483C701.254 310.483 697.383 310.03 693.917 309.123C690.483 308.248 687.519 306.92 685.024 305.138L692.994 291.143C695.391 292.634 697.642 293.767 699.748 294.545C701.886 295.322 703.83 295.711 705.579 295.711C706.292 295.711 706.843 295.646 707.231 295.517C707.652 295.387 707.96 295.193 708.155 294.934C708.349 294.642 708.446 294.27 708.446 293.816C708.446 293.006 708.155 292.374 707.571 291.921C707.021 291.435 706.114 290.933 704.85 290.415C703.587 289.896 701.902 289.183 699.797 288.276C697.82 287.402 695.958 286.43 694.208 285.361C692.491 284.292 691.098 282.931 690.029 281.279C688.96 279.627 688.426 277.521 688.426 274.962C688.426 271.561 689.398 268.564 691.341 265.972C693.285 263.381 695.99 261.356 699.456 259.898C702.923 258.44 706.924 257.712 711.459 257.712C713.759 257.712 716.334 257.938 719.185 258.392C722.068 258.845 725.421 259.591 729.244 260.627L722.927 273.942C717.97 272.063 714.212 271.123 711.653 271.123C710.39 271.123 709.402 271.318 708.689 271.706C708.009 272.095 707.669 272.565 707.669 273.115C707.669 273.893 708.268 274.638 709.467 275.351C710.698 276.063 712.123 276.711 713.743 277.294C715.362 277.878 716.772 278.38 717.97 278.801C720.173 279.546 722.149 280.469 723.899 281.571C725.68 282.672 727.09 284.13 728.126 285.944C729.195 287.758 729.73 290.139 729.73 293.087C729.73 296.877 728.79 300.068 726.911 302.66C725.065 305.219 722.344 307.163 718.748 308.491C715.152 309.819 710.746 310.483 705.531 310.483ZM764.905 310.483C761.082 310.483 757.454 309.803 754.02 308.442C750.619 307.049 747.606 305.138 744.982 302.708C742.358 300.279 740.284 297.477 738.762 294.302C737.272 291.095 736.527 287.693 736.527 284.097C736.527 280.728 737.223 277.473 738.616 274.33C740.041 271.156 742.018 268.321 744.544 265.827C747.104 263.3 750.1 261.307 753.534 259.85C757 258.36 760.758 257.614 764.808 257.614C767.982 257.614 771.06 258.052 774.04 258.926C777.021 259.801 779.321 260.854 780.94 262.085L774.332 275.691C772.712 274.589 770.639 274.039 768.112 274.039C765.715 274.039 763.755 274.573 762.232 275.642C760.742 276.711 759.641 278.023 758.928 279.578C758.248 281.133 757.907 282.623 757.907 284.049C757.907 285.831 758.312 287.483 759.122 289.005C759.965 290.528 761.163 291.759 762.718 292.698C764.273 293.605 766.103 294.059 768.209 294.059C769.505 294.059 770.687 293.897 771.756 293.573C772.858 293.217 773.716 292.828 774.332 292.407L780.94 306.013C779.256 307.211 776.956 308.248 774.04 309.123C771.157 310.03 768.112 310.483 764.905 310.483ZM816.11 310.483C810.409 310.483 805.258 309.366 800.658 307.13C796.09 304.863 792.462 301.753 789.773 297.801C787.116 293.816 785.788 289.232 785.788 284.049C785.788 278.866 787.116 274.298 789.773 270.346C792.462 266.361 796.09 263.251 800.658 261.016C805.258 258.748 810.409 257.614 816.11 257.614C821.812 257.614 826.946 258.748 831.514 261.016C836.114 263.251 839.742 266.361 842.399 270.346C845.088 274.298 846.432 278.866 846.432 284.049C846.432 289.232 845.088 293.816 842.399 297.801C839.742 301.753 836.114 304.863 831.514 307.13C826.946 309.366 821.812 310.483 816.11 310.483ZM816.11 293.379C817.762 293.379 819.285 292.99 820.678 292.212C822.071 291.403 823.172 290.301 823.982 288.908C824.824 287.515 825.246 285.895 825.246 284.049C825.246 282.202 824.824 280.583 823.982 279.19C823.172 277.764 822.071 276.663 820.678 275.885C819.285 275.108 817.762 274.719 816.11 274.719C814.458 274.719 812.935 275.108 811.542 275.885C810.149 276.663 809.032 277.764 808.19 279.19C807.38 280.583 806.975 282.202 806.975 284.049C806.975 285.895 807.38 287.515 808.19 288.908C809.032 290.301 810.149 291.403 811.542 292.212C812.935 292.99 814.458 293.379 816.11 293.379ZM856.701 308.928V259.169H876.916V266.167C878.989 263.478 881.402 261.388 884.156 259.898C886.942 258.376 889.809 257.614 892.757 257.614C894.668 257.614 896.693 257.938 898.831 258.586C900.969 259.234 902.735 260.076 904.128 261.113L895.672 278.121C894.474 277.213 893.048 276.485 891.396 275.934C889.776 275.383 888.286 275.108 886.926 275.108C885.209 275.108 883.573 275.561 882.018 276.468C880.495 277.343 879.264 278.493 878.325 279.918C877.385 281.344 876.916 282.883 876.916 284.535V308.928H856.701ZM929.353 310.483C924.947 310.483 920.898 309.366 917.205 307.13C913.512 304.895 910.548 301.785 908.313 297.801C906.11 293.816 905.008 289.232 905.008 284.049C905.008 279.028 906.077 274.525 908.215 270.54C910.353 266.555 913.285 263.413 917.011 261.113C920.769 258.781 925.061 257.614 929.888 257.614C932.739 257.614 935.444 258.036 938.003 258.878C940.562 259.688 942.813 260.854 944.757 262.376V225.349H964.972V308.928H944.757V305.041C942.489 306.79 940.044 308.135 937.42 309.074C934.828 310.014 932.139 310.483 929.353 310.483ZM935.67 293.379C937.517 293.379 939.153 292.974 940.578 292.164C942.004 291.354 943.121 290.253 943.931 288.86C944.741 287.467 945.146 285.895 945.146 284.146C945.146 282.332 944.725 280.728 943.882 279.335C943.073 277.91 941.955 276.792 940.53 275.982C939.137 275.14 937.549 274.719 935.767 274.719C933.986 274.719 932.382 275.14 930.957 275.982C929.564 276.792 928.446 277.91 927.604 279.335C926.794 280.761 926.389 282.381 926.389 284.195C926.389 285.944 926.778 287.515 927.555 288.908C928.333 290.301 929.418 291.403 930.811 292.212C932.236 292.99 933.856 293.379 935.67 293.379ZM1022.24 310.483C1017.96 310.483 1014.09 310.03 1010.62 309.123C1007.19 308.248 1004.23 306.92 1001.73 305.138L1009.7 291.143C1012.1 292.634 1014.35 293.767 1016.45 294.545C1018.59 295.322 1020.54 295.711 1022.29 295.711C1023 295.711 1023.55 295.646 1023.94 295.517C1024.36 295.387 1024.67 295.193 1024.86 294.934C1025.06 294.642 1025.15 294.27 1025.15 293.816C1025.15 293.006 1024.86 292.374 1024.28 291.921C1023.73 291.435 1022.82 290.933 1021.56 290.415C1020.29 289.896 1018.61 289.183 1016.5 288.276C1014.53 287.402 1012.66 286.43 1010.92 285.361C1009.2 284.292 1007.81 282.931 1006.74 281.279C1005.67 279.627 1005.13 277.521 1005.13 274.962C1005.13 271.561 1006.1 268.564 1008.05 265.972C1009.99 263.381 1012.7 261.356 1016.16 259.898C1019.63 258.44 1023.63 257.712 1028.17 257.712C1030.47 257.712 1033.04 257.938 1035.89 258.392C1038.78 258.845 1042.13 259.591 1045.95 260.627L1039.63 273.942C1034.68 272.063 1030.92 271.123 1028.36 271.123C1027.1 271.123 1026.11 271.318 1025.4 271.706C1024.72 272.095 1024.38 272.565 1024.38 273.115C1024.38 273.893 1024.97 274.638 1026.17 275.351C1027.4 276.063 1028.83 276.711 1030.45 277.294C1032.07 277.878 1033.48 278.38 1034.68 278.801C1036.88 279.546 1038.86 280.469 1040.61 281.571C1042.39 282.672 1043.8 284.13 1044.83 285.944C1045.9 287.758 1046.44 290.139 1046.44 293.087C1046.44 296.877 1045.5 300.068 1043.62 302.66C1041.77 305.219 1039.05 307.163 1035.45 308.491C1031.86 309.819 1027.45 310.483 1022.24 310.483ZM1082.54 310.483C1077.03 310.483 1072.07 309.317 1067.67 306.985C1063.29 304.652 1059.83 301.494 1057.27 297.509C1054.71 293.492 1053.43 288.973 1053.43 283.952C1053.43 280.226 1054.16 276.776 1055.61 273.601C1057.07 270.394 1059.1 267.592 1061.69 265.195C1064.28 262.798 1067.31 260.935 1070.78 259.607C1074.27 258.279 1078.06 257.614 1082.15 257.614C1087.33 257.614 1091.86 258.7 1095.75 260.87C1099.67 263.008 1102.73 266.005 1104.94 269.86C1107.14 273.682 1108.24 278.137 1108.24 283.223C1108.24 283.644 1108.22 284.049 1108.19 284.438C1108.19 284.794 1108.14 285.604 1108.05 286.867H1074.32C1074.32 288.455 1074.7 289.831 1075.44 290.998C1076.19 292.131 1077.25 293.006 1078.65 293.622C1080.07 294.237 1081.76 294.545 1083.7 294.545C1085.52 294.545 1087.07 294.221 1088.37 293.573C1089.69 292.925 1091.23 291.759 1092.98 290.074L1107.46 297.266C1105.13 301.38 1101.75 304.62 1097.31 306.985C1092.9 309.317 1087.98 310.483 1082.54 310.483ZM1074.91 277.343H1088.51C1088.32 276.015 1087.93 274.93 1087.35 274.087C1086.76 273.213 1086 272.565 1085.06 272.144C1084.12 271.723 1082.97 271.512 1081.61 271.512C1080.19 271.512 1078.97 271.739 1077.97 272.192C1077 272.646 1076.25 273.31 1075.73 274.185C1075.21 275.027 1074.94 276.08 1074.91 277.343ZM1119.41 308.928V259.169H1139.62V266.167C1141.69 263.478 1144.11 261.388 1146.86 259.898C1149.65 258.376 1152.51 257.614 1155.46 257.614C1157.37 257.614 1159.4 257.938 1161.54 258.586C1163.67 259.234 1165.44 260.076 1166.83 261.113L1158.38 278.121C1157.18 277.213 1155.75 276.485 1154.1 275.934C1152.48 275.383 1150.99 275.108 1149.63 275.108C1147.91 275.108 1146.28 275.561 1144.72 276.468C1143.2 277.343 1141.97 278.493 1141.03 279.918C1140.09 281.344 1139.62 282.883 1139.62 284.535V308.928H1119.41ZM1188.46 308.928L1160.96 259.169H1184.87L1195.26 282.688L1205.66 259.169H1229.57L1202.07 308.928H1188.46ZM1258.02 310.483C1252.51 310.483 1247.56 309.317 1243.15 306.985C1238.78 304.652 1235.31 301.494 1232.75 297.509C1230.19 293.492 1228.91 288.973 1228.91 283.952C1228.91 280.226 1229.64 276.776 1231.1 273.601C1232.56 270.394 1234.58 267.592 1237.17 265.195C1239.76 262.798 1242.79 260.935 1246.26 259.607C1249.76 258.279 1253.55 257.614 1257.63 257.614C1262.81 257.614 1267.35 258.7 1271.24 260.87C1275.16 263.008 1278.22 266.005 1280.42 269.86C1282.62 273.682 1283.72 278.137 1283.72 283.223C1283.72 283.644 1283.71 284.049 1283.68 284.438C1283.68 284.794 1283.63 285.604 1283.53 286.867H1249.81C1249.81 288.455 1250.18 289.831 1250.92 290.998C1251.67 292.131 1252.74 293.006 1254.13 293.622C1255.56 294.237 1257.24 294.545 1259.19 294.545C1261 294.545 1262.55 294.221 1263.85 293.573C1265.18 292.925 1266.72 291.759 1268.47 290.074L1282.95 297.266C1280.61 301.38 1277.23 304.62 1272.79 306.985C1268.39 309.317 1263.46 310.483 1258.02 310.483ZM1250.39 277.343H1264C1263.8 276.015 1263.41 274.93 1262.83 274.087C1262.25 273.213 1261.49 272.565 1260.55 272.144C1259.61 271.723 1258.46 271.512 1257.1 271.512C1255.67 271.512 1254.46 271.739 1253.45 272.192C1252.48 272.646 1251.73 273.31 1251.22 274.185C1250.7 275.027 1250.42 276.08 1250.39 277.343ZM1294.89 308.928V259.169H1315.1V266.167C1317.18 263.478 1319.59 261.388 1322.34 259.898C1325.13 258.376 1328 257.614 1330.95 257.614C1332.86 257.614 1334.88 257.938 1337.02 258.586C1339.16 259.234 1340.92 260.076 1342.32 261.113L1333.86 278.121C1332.66 277.213 1331.24 276.485 1329.59 275.934C1327.97 275.383 1326.48 275.108 1325.11 275.108C1323.4 275.108 1321.76 275.561 1320.21 276.468C1318.68 277.343 1317.45 278.493 1316.51 279.918C1315.57 281.344 1315.1 282.883 1315.1 284.535V308.928H1294.89ZM592.086 422.817C589.253 422.817 587.051 421.919 585.477 420.123C583.904 418.309 583.117 415.783 583.117 412.543V399.964H579.313V393.495H583.117V382.832H591.641V393.495H597.889V399.964H591.641V411.932C591.641 413.006 591.854 413.82 592.28 414.376C592.724 414.931 593.345 415.209 594.141 415.209C595.029 415.209 595.881 414.912 596.695 414.32L598.833 421.151C597.871 421.669 596.788 422.076 595.584 422.373C594.4 422.669 593.233 422.817 592.086 422.817ZM620.362 422.817C617.234 422.817 614.411 422.178 611.893 420.901C609.375 419.605 607.376 417.828 605.895 415.57C604.414 413.293 603.674 410.673 603.674 407.711C603.674 404.75 604.405 402.14 605.867 399.881C607.348 397.604 609.348 395.827 611.865 394.55C614.401 393.254 617.234 392.606 620.362 392.606C623.509 392.606 626.341 393.254 628.859 394.55C631.376 395.827 633.366 397.604 634.829 399.881C636.31 402.14 637.05 404.75 637.05 407.711C637.05 410.673 636.31 413.293 634.829 415.57C633.366 417.828 631.376 419.605 628.859 420.901C626.341 422.178 623.509 422.817 620.362 422.817ZM620.39 415.542C621.834 415.542 623.148 415.209 624.333 414.542C625.517 413.876 626.452 412.96 627.137 411.793C627.822 410.609 628.165 409.248 628.165 407.711C628.165 406.175 627.822 404.824 627.137 403.657C626.452 402.473 625.517 401.547 624.333 400.881C623.148 400.214 621.834 399.881 620.39 399.881C618.927 399.881 617.604 400.214 616.419 400.881C615.253 401.547 614.327 402.473 613.642 403.657C612.957 404.824 612.615 406.175 612.615 407.711C612.615 409.248 612.957 410.609 613.642 411.793C614.327 412.96 615.253 413.876 616.419 414.542C617.604 415.209 618.927 415.542 620.39 415.542ZM659.566 421.928V393.495H668.09V397.576C669.146 395.984 670.432 394.763 671.95 393.911C673.487 393.041 675.134 392.606 676.893 392.606C677.892 392.606 678.929 392.754 680.003 393.05C681.076 393.347 681.974 393.726 682.696 394.189L679.142 401.381C678.512 400.955 677.772 400.622 676.92 400.381C676.087 400.122 675.31 399.992 674.588 399.992C673.477 399.992 672.422 400.279 671.423 400.853C670.423 401.427 669.618 402.177 669.007 403.102C668.396 404.009 668.09 404.99 668.09 406.045V421.928H659.566ZM700.778 422.817C697.705 422.817 694.947 422.16 692.503 420.845C690.078 419.513 688.153 417.708 686.727 415.431C685.302 413.154 684.589 410.581 684.589 407.711C684.589 405.601 684.987 403.63 685.783 401.797C686.598 399.964 687.727 398.363 689.171 396.993C690.615 395.605 692.29 394.531 694.197 393.772C696.104 392.995 698.168 392.606 700.389 392.606C703.351 392.606 705.942 393.226 708.164 394.467C710.404 395.688 712.144 397.391 713.384 399.576C714.643 401.76 715.272 404.305 715.272 407.212C715.272 407.452 715.263 407.665 715.244 407.85C715.244 408.017 715.217 408.341 715.161 408.822H693.364C693.364 410.266 693.688 411.525 694.336 412.599C695.002 413.672 695.928 414.514 697.112 415.125C698.297 415.718 699.676 416.014 701.25 416.014C702.731 416.014 704.036 415.727 705.165 415.153C706.313 414.579 707.414 413.663 708.469 412.404L714.606 415.486C713.273 417.782 711.385 419.577 708.941 420.873C706.498 422.169 703.777 422.817 700.778 422.817ZM693.669 404.102H706.887C706.701 403.01 706.303 402.065 705.693 401.269C705.1 400.473 704.341 399.863 703.416 399.437C702.49 399.011 701.444 398.798 700.278 398.798C699.038 398.798 697.945 399.011 697.001 399.437C696.057 399.863 695.298 400.473 694.724 401.269C694.151 402.065 693.799 403.01 693.669 404.102ZM744.762 436.367V418.18C743.484 419.661 741.985 420.808 740.263 421.623C738.542 422.419 736.709 422.817 734.765 422.817C732.1 422.817 729.702 422.16 727.574 420.845C725.463 419.513 723.797 417.708 722.575 415.431C721.354 413.135 720.743 410.562 720.743 407.711C720.743 404.824 721.354 402.241 722.575 399.964C723.816 397.688 725.51 395.892 727.657 394.578C729.804 393.263 732.238 392.606 734.96 392.606C736.94 392.606 738.773 392.986 740.458 393.745C742.161 394.504 743.595 395.577 744.762 396.966V393.495H753.286V436.367H744.762ZM737.32 415.57C738.801 415.57 740.115 415.236 741.263 414.57C742.411 413.885 743.308 412.96 743.956 411.793C744.623 410.609 744.956 409.257 744.956 407.739C744.956 406.221 744.623 404.87 743.956 403.685C743.308 402.501 742.411 401.566 741.263 400.881C740.115 400.196 738.801 399.853 737.32 399.853C735.876 399.853 734.58 400.196 733.432 400.881C732.285 401.566 731.378 402.501 730.711 403.685C730.045 404.851 729.712 406.194 729.712 407.711C729.712 409.248 730.036 410.609 730.684 411.793C731.331 412.96 732.229 413.885 733.377 414.57C734.525 415.236 735.839 415.57 737.32 415.57ZM777.253 422.817C772.07 422.817 768.33 421.79 766.035 419.735C763.739 417.68 762.592 414.32 762.592 409.655V393.495H771.116V407.656C771.116 410.655 771.579 412.774 772.505 414.015C773.449 415.255 775.031 415.875 777.253 415.875C779.511 415.875 781.094 415.255 782.001 414.015C782.927 412.774 783.389 410.655 783.389 407.656V393.495H791.914V409.655C791.914 414.32 790.766 417.68 788.471 419.735C786.194 421.79 782.454 422.817 777.253 422.817ZM814.938 422.817C811.865 422.817 809.107 422.16 806.663 420.845C804.238 419.513 802.313 417.708 800.888 415.431C799.462 413.154 798.75 410.581 798.75 407.711C798.75 405.601 799.148 403.63 799.944 401.797C800.758 399.964 801.888 398.363 803.331 396.993C804.775 395.605 806.451 394.531 808.357 393.772C810.264 392.995 812.328 392.606 814.549 392.606C817.511 392.606 820.103 393.226 822.324 394.467C824.564 395.688 826.304 397.391 827.544 399.576C828.803 401.76 829.433 404.305 829.433 407.212C829.433 407.452 829.423 407.665 829.405 407.85C829.405 408.017 829.377 408.341 829.322 408.822H807.524C807.524 410.266 807.848 411.525 808.496 412.599C809.163 413.672 810.088 414.514 811.273 415.125C812.458 415.718 813.837 416.014 815.41 416.014C816.891 416.014 818.196 415.727 819.325 415.153C820.473 414.579 821.575 413.663 822.63 412.404L828.766 415.486C827.433 417.782 825.545 419.577 823.102 420.873C820.658 422.169 817.937 422.817 814.938 422.817ZM807.83 404.102H821.047C820.862 403.01 820.464 402.065 819.853 401.269C819.261 400.473 818.502 399.863 817.576 399.437C816.65 399.011 815.605 398.798 814.438 398.798C813.198 398.798 812.106 399.011 811.162 399.437C810.218 399.863 809.459 400.473 808.885 401.269C808.311 402.065 807.959 403.01 807.83 404.102ZM844.96 422.817C842.554 422.817 840.397 422.437 838.49 421.678C836.602 420.919 835.029 419.809 833.77 418.346L837.352 412.626C838.537 413.885 839.777 414.848 841.073 415.514C842.369 416.181 843.664 416.514 844.96 416.514C845.682 416.514 846.302 416.393 846.821 416.153C847.357 415.912 847.774 415.57 848.07 415.125C848.385 414.663 848.542 414.107 848.542 413.459C848.542 412.719 848.329 412.136 847.904 411.71C847.496 411.284 846.867 410.895 846.015 410.544C845.164 410.174 844.062 409.711 842.711 409.155C841.563 408.674 840.462 408.128 839.407 407.517C838.352 406.906 837.491 406.129 836.824 405.185C836.176 404.241 835.853 403.047 835.853 401.603C835.853 399.844 836.343 398.298 837.324 396.966C838.305 395.614 839.657 394.559 841.378 393.8C843.118 393.041 845.118 392.662 847.376 392.662C848.783 392.662 850.254 392.875 851.791 393.3C853.346 393.726 855.003 394.374 856.761 395.244L853.846 400.714C851.458 399.178 849.32 398.409 847.431 398.409C846.376 398.409 845.534 398.641 844.905 399.104C844.275 399.566 843.961 400.15 843.961 400.853C843.961 401.519 844.285 402.103 844.932 402.602C845.599 403.084 846.404 403.519 847.348 403.907C848.311 404.278 849.227 404.62 850.097 404.935C851.523 405.453 852.781 406.027 853.873 406.656C854.984 407.286 855.854 408.109 856.484 409.128C857.113 410.127 857.428 411.469 857.428 413.154C857.428 415.209 856.928 416.958 855.928 418.402C854.947 419.827 853.522 420.919 851.652 421.678C849.801 422.437 847.57 422.817 844.96 422.817ZM874.639 422.817C871.807 422.817 869.604 421.919 868.031 420.123C866.457 418.309 865.671 415.783 865.671 412.543V399.964H861.867V393.495H865.671V382.832H874.195V393.495H880.443V399.964H874.195V411.932C874.195 413.006 874.408 413.82 874.834 414.376C875.278 414.931 875.898 415.209 876.694 415.209C877.583 415.209 878.434 414.912 879.249 414.32L881.387 421.151C880.424 421.669 879.341 422.076 878.138 422.373C876.953 422.669 875.787 422.817 874.639 422.817ZM915.579 422.817C912.969 422.817 910.59 422.169 908.443 420.873C906.314 419.559 904.62 417.763 903.362 415.486C902.121 413.191 901.501 410.581 901.501 407.656C901.501 404.805 902.103 402.251 903.306 399.992C904.509 397.715 906.166 395.92 908.277 394.605C910.405 393.273 912.84 392.606 915.579 392.606C917.597 392.606 919.476 392.995 921.216 393.772C922.975 394.531 924.409 395.596 925.52 396.966V393.495H934.045V421.928H925.52V418.18C924.224 419.679 922.734 420.827 921.049 421.623C919.365 422.419 917.542 422.817 915.579 422.817ZM918.106 415.57C919.587 415.57 920.901 415.236 922.049 414.57C923.197 413.885 924.095 412.95 924.743 411.766C925.39 410.581 925.714 409.229 925.714 407.711C925.714 406.175 925.381 404.824 924.715 403.657C924.067 402.473 923.169 401.547 922.021 400.881C920.892 400.196 919.587 399.853 918.106 399.853C916.644 399.853 915.339 400.196 914.191 400.881C913.043 401.547 912.136 402.473 911.47 403.657C910.803 404.842 910.47 406.194 910.47 407.711C910.47 409.229 910.794 410.581 911.442 411.766C912.108 412.95 913.015 413.885 914.163 414.57C915.311 415.236 916.625 415.57 918.106 415.57ZM944.072 421.928V393.495H952.597V396.66C953.689 395.438 955.049 394.457 956.678 393.717C958.326 392.976 960.14 392.606 962.121 392.606C964.305 392.606 966.221 393.087 967.869 394.05C969.535 394.994 970.84 396.318 971.784 398.021C972.728 399.705 973.2 401.677 973.2 403.935V421.928H964.675V405.74C964.675 403.704 964.139 402.121 963.065 400.992C962.01 399.844 960.557 399.27 958.705 399.27C957.447 399.27 956.354 399.529 955.429 400.048C954.522 400.548 953.818 401.242 953.319 402.13C952.837 403 952.597 403.991 952.597 405.101V421.928H944.072ZM1011.32 422.817C1008.24 422.817 1005.48 422.16 1003.04 420.845C1000.62 419.513 998.691 417.708 997.265 415.431C995.84 413.154 995.127 410.581 995.127 407.711C995.127 405.601 995.525 403.63 996.321 401.797C997.136 399.964 998.265 398.363 999.709 396.993C1001.15 395.605 1002.83 394.531 1004.73 393.772C1006.64 392.995 1008.71 392.606 1010.93 392.606C1013.89 392.606 1016.48 393.226 1018.7 394.467C1020.94 395.688 1022.68 397.391 1023.92 399.576C1025.18 401.76 1025.81 404.305 1025.81 407.212C1025.81 407.452 1025.8 407.665 1025.78 407.85C1025.78 408.017 1025.75 408.341 1025.7 408.822H1003.9C1003.9 410.266 1004.23 411.525 1004.87 412.599C1005.54 413.672 1006.47 414.514 1007.65 415.125C1008.84 415.718 1010.21 416.014 1011.79 416.014C1013.27 416.014 1014.57 415.727 1015.7 415.153C1016.85 414.579 1017.95 413.663 1019.01 412.404L1025.14 415.486C1023.81 417.782 1021.92 419.577 1019.48 420.873C1017.04 422.169 1014.31 422.817 1011.32 422.817ZM1004.21 404.102H1017.42C1017.24 403.01 1016.84 402.065 1016.23 401.269C1015.64 400.473 1014.88 399.863 1013.95 399.437C1013.03 399.011 1011.98 398.798 1010.82 398.798C1009.58 398.798 1008.48 399.011 1007.54 399.437C1006.6 399.863 1005.84 400.473 1005.26 401.269C1004.69 402.065 1004.34 403.01 1004.21 404.102ZM1045.09 422.817C1042.48 422.817 1040.1 422.169 1037.95 420.873C1035.82 419.559 1034.13 417.763 1032.87 415.486C1031.63 413.191 1031.01 410.581 1031.01 407.656C1031.01 404.805 1031.61 402.251 1032.81 399.992C1034.02 397.715 1035.67 395.92 1037.78 394.605C1039.91 393.273 1042.35 392.606 1045.09 392.606C1047.11 392.606 1048.98 392.995 1050.72 393.772C1052.48 394.531 1053.92 395.596 1055.03 396.966V393.495H1063.55V421.928H1055.03V418.18C1053.73 419.679 1052.24 420.827 1050.56 421.623C1048.87 422.419 1047.05 422.817 1045.09 422.817ZM1047.61 415.57C1049.1 415.57 1050.41 415.236 1051.56 414.57C1052.71 413.885 1053.6 412.95 1054.25 411.766C1054.9 410.581 1055.22 409.229 1055.22 407.711C1055.22 406.175 1054.89 404.824 1054.22 403.657C1053.58 402.473 1052.68 401.547 1051.53 400.881C1050.4 400.196 1049.1 399.853 1047.61 399.853C1046.15 399.853 1044.85 400.196 1043.7 400.881C1042.55 401.547 1041.64 402.473 1040.98 403.657C1040.31 404.842 1039.98 406.194 1039.98 407.711C1039.98 409.229 1040.3 410.581 1040.95 411.766C1041.62 412.95 1042.52 413.885 1043.67 414.57C1044.82 415.236 1046.13 415.57 1047.61 415.57ZM1073.58 421.928V393.495H1082.1V397.576C1083.16 395.984 1084.45 394.763 1085.96 393.911C1087.5 393.041 1089.15 392.606 1090.91 392.606C1091.91 392.606 1092.94 392.754 1094.02 393.05C1095.09 393.347 1095.99 393.726 1096.71 394.189L1093.16 401.381C1092.53 400.955 1091.79 400.622 1090.93 400.381C1090.1 400.122 1089.32 399.992 1088.6 399.992C1087.49 399.992 1086.44 400.279 1085.44 400.853C1084.44 401.427 1083.63 402.177 1083.02 403.102C1082.41 404.009 1082.1 404.99 1082.1 406.045V421.928H1073.58ZM1101.46 421.928V374.169H1109.98V421.928H1101.46ZM1118.51 436.367L1127.7 418.374L1114.18 393.495H1123.95L1132.67 410.155L1140.23 393.495H1150L1128.26 436.367H1118.51ZM1181.54 422.817C1178.93 422.817 1176.55 422.169 1174.4 420.873C1172.27 419.559 1170.58 417.763 1169.32 415.486C1168.08 413.191 1167.46 410.581 1167.46 407.656C1167.46 404.805 1168.06 402.251 1169.26 399.992C1170.47 397.715 1172.12 395.92 1174.23 394.605C1176.36 393.273 1178.8 392.606 1181.54 392.606C1183.56 392.606 1185.43 392.995 1187.17 393.772C1188.93 394.531 1190.37 395.596 1191.48 396.966V393.495H1200V421.928H1191.48V418.18C1190.18 419.679 1188.69 420.827 1187.01 421.623C1185.32 422.419 1183.5 422.817 1181.54 422.817ZM1184.06 415.57C1185.55 415.57 1186.86 415.236 1188.01 414.57C1189.16 413.885 1190.05 412.95 1190.7 411.766C1191.35 410.581 1191.67 409.229 1191.67 407.711C1191.67 406.175 1191.34 404.824 1190.67 403.657C1190.03 402.473 1189.13 401.547 1187.98 400.881C1186.85 400.196 1185.55 399.853 1184.06 399.853C1182.6 399.853 1181.3 400.196 1180.15 400.881C1179 401.547 1178.09 402.473 1177.43 403.657C1176.76 404.842 1176.43 406.194 1176.43 407.711C1176.43 409.229 1176.75 410.581 1177.4 411.766C1178.07 412.95 1178.97 413.885 1180.12 414.57C1181.27 415.236 1182.58 415.57 1184.06 415.57ZM1223.33 422.817C1221.17 422.817 1219.12 422.428 1217.19 421.651C1215.29 420.873 1213.6 419.8 1212.14 418.43C1210.68 417.041 1209.53 415.44 1208.7 413.626C1207.86 411.793 1207.45 409.831 1207.45 407.739C1207.45 405.722 1207.84 403.806 1208.61 401.991C1209.41 400.177 1210.52 398.567 1211.95 397.16C1213.39 395.753 1215.07 394.642 1217 393.828C1218.94 393.013 1221.04 392.606 1223.3 392.606C1225.14 392.606 1226.89 392.865 1228.58 393.384C1230.28 393.902 1231.65 394.568 1232.69 395.383L1229.77 401.131C1228.38 400.113 1226.66 399.603 1224.61 399.603C1222.85 399.603 1221.36 399.992 1220.14 400.77C1218.92 401.547 1217.98 402.556 1217.33 403.796C1216.7 405.037 1216.39 406.342 1216.39 407.711C1216.39 409.211 1216.73 410.581 1217.42 411.821C1218.1 413.043 1219.06 414.015 1220.3 414.737C1221.56 415.459 1223.02 415.82 1224.66 415.82C1225.68 415.82 1226.64 415.681 1227.52 415.403C1228.41 415.125 1229.16 414.755 1229.77 414.292L1232.69 420.04C1231.63 420.836 1230.27 421.493 1228.61 422.012C1226.94 422.548 1225.18 422.817 1223.33 422.817ZM1252.89 422.817C1250.72 422.817 1248.68 422.428 1246.75 421.651C1244.84 420.873 1243.16 419.8 1241.7 418.43C1240.24 417.041 1239.09 415.44 1238.25 413.626C1237.42 411.793 1237.01 409.831 1237.01 407.739C1237.01 405.722 1237.39 403.806 1238.17 401.991C1238.97 400.177 1240.08 398.567 1241.5 397.16C1242.95 395.753 1244.63 394.642 1246.56 393.828C1248.5 393.013 1250.6 392.606 1252.86 392.606C1254.69 392.606 1256.45 392.865 1258.14 393.384C1259.84 393.902 1261.21 394.568 1262.25 395.383L1259.33 401.131C1257.94 400.113 1256.22 399.603 1254.17 399.603C1252.41 399.603 1250.92 399.992 1249.69 400.77C1248.47 401.547 1247.54 402.556 1246.89 403.796C1246.26 405.037 1245.95 406.342 1245.95 407.711C1245.95 409.211 1246.29 410.581 1246.97 411.821C1247.66 413.043 1248.62 414.015 1249.86 414.737C1251.12 415.459 1252.57 415.82 1254.22 415.82C1255.24 415.82 1256.19 415.681 1257.08 415.403C1257.97 415.125 1258.72 414.755 1259.33 414.292L1262.25 420.04C1261.19 420.836 1259.83 421.493 1258.16 422.012C1256.5 422.548 1254.74 422.817 1252.89 422.817ZM1282.81 422.817C1279.73 422.817 1276.97 422.16 1274.53 420.845C1272.11 419.513 1270.18 417.708 1268.76 415.431C1267.33 413.154 1266.62 410.581 1266.62 407.711C1266.62 405.601 1267.02 403.63 1267.81 401.797C1268.63 399.964 1269.76 398.363 1271.2 396.993C1272.64 395.605 1274.32 394.531 1276.23 393.772C1278.13 392.995 1280.2 392.606 1282.42 392.606C1285.38 392.606 1287.97 393.226 1290.19 394.467C1292.43 395.688 1294.17 397.391 1295.41 399.576C1296.67 401.76 1297.3 404.305 1297.3 407.212C1297.3 407.452 1297.29 407.665 1297.27 407.85C1297.27 408.017 1297.24 408.341 1297.19 408.822H1275.39C1275.39 410.266 1275.72 411.525 1276.36 412.599C1277.03 413.672 1277.96 414.514 1279.14 415.125C1280.33 415.718 1281.7 416.014 1283.28 416.014C1284.76 416.014 1286.06 415.727 1287.19 415.153C1288.34 414.579 1289.44 413.663 1290.5 412.404L1296.63 415.486C1295.3 417.782 1293.41 419.577 1290.97 420.873C1288.53 422.169 1285.8 422.817 1282.81 422.817ZM1275.7 404.102H1288.91C1288.73 403.01 1288.33 402.065 1287.72 401.269C1287.13 400.473 1286.37 399.863 1285.44 399.437C1284.52 399.011 1283.47 398.798 1282.31 398.798C1281.07 398.798 1279.97 399.011 1279.03 399.437C1278.09 399.863 1277.33 400.473 1276.75 401.269C1276.18 402.065 1275.83 403.01 1275.7 404.102ZM1312.83 422.817C1310.42 422.817 1308.26 422.437 1306.36 421.678C1304.47 420.919 1302.9 419.809 1301.64 418.346L1305.22 412.626C1306.4 413.885 1307.64 414.848 1308.94 415.514C1310.24 416.181 1311.53 416.514 1312.83 416.514C1313.55 416.514 1314.17 416.393 1314.69 416.153C1315.23 415.912 1315.64 415.57 1315.94 415.125C1316.25 414.663 1316.41 414.107 1316.41 413.459C1316.41 412.719 1316.2 412.136 1315.77 411.71C1315.36 411.284 1314.73 410.895 1313.88 410.544C1313.03 410.174 1311.93 409.711 1310.58 409.155C1309.43 408.674 1308.33 408.128 1307.27 407.517C1306.22 406.906 1305.36 406.129 1304.69 405.185C1304.04 404.241 1303.72 403.047 1303.72 401.603C1303.72 399.844 1304.21 398.298 1305.19 396.966C1306.17 395.614 1307.52 394.559 1309.25 393.8C1310.99 393.041 1312.99 392.662 1315.24 392.662C1316.65 392.662 1318.12 392.875 1319.66 393.3C1321.21 393.726 1322.87 394.374 1324.63 395.244L1321.71 400.714C1319.33 399.178 1317.19 398.409 1315.3 398.409C1314.24 398.409 1313.4 398.641 1312.77 399.104C1312.14 399.566 1311.83 400.15 1311.83 400.853C1311.83 401.519 1312.15 402.103 1312.8 402.602C1313.47 403.084 1314.27 403.519 1315.22 403.907C1316.18 404.278 1317.09 404.62 1317.96 404.935C1319.39 405.453 1320.65 406.027 1321.74 406.656C1322.85 407.286 1323.72 408.109 1324.35 409.128C1324.98 410.127 1325.3 411.469 1325.3 413.154C1325.3 415.209 1324.8 416.958 1323.8 418.402C1322.81 419.827 1321.39 420.919 1319.52 421.678C1317.67 422.437 1315.44 422.817 1312.83 422.817ZM1341.25 422.817C1338.84 422.817 1336.68 422.437 1334.78 421.678C1332.89 420.919 1331.31 419.809 1330.06 418.346L1333.64 412.626C1334.82 413.885 1336.06 414.848 1337.36 415.514C1338.65 416.181 1339.95 416.514 1341.25 416.514C1341.97 416.514 1342.59 416.393 1343.11 416.153C1343.64 415.912 1344.06 415.57 1344.36 415.125C1344.67 414.663 1344.83 414.107 1344.83 413.459C1344.83 412.719 1344.62 412.136 1344.19 411.71C1343.78 411.284 1343.15 410.895 1342.3 410.544C1341.45 410.174 1340.35 409.711 1339 409.155C1337.85 408.674 1336.75 408.128 1335.69 407.517C1334.64 406.906 1333.78 406.129 1333.11 405.185C1332.46 404.241 1332.14 403.047 1332.14 401.603C1332.14 399.844 1332.63 398.298 1333.61 396.966C1334.59 395.614 1335.94 394.559 1337.66 393.8C1339.4 393.041 1341.4 392.662 1343.66 392.662C1345.07 392.662 1346.54 392.875 1348.08 393.3C1349.63 393.726 1351.29 394.374 1353.05 395.244L1350.13 400.714C1347.74 399.178 1345.61 398.409 1343.72 398.409C1342.66 398.409 1341.82 398.641 1341.19 399.104C1340.56 399.566 1340.25 400.15 1340.25 400.853C1340.25 401.519 1340.57 402.103 1341.22 402.602C1341.88 403.084 1342.69 403.519 1343.63 403.907C1344.6 404.278 1345.51 404.62 1346.38 404.935C1347.81 405.453 1349.07 406.027 1350.16 406.656C1351.27 407.286 1352.14 408.109 1352.77 409.128C1353.4 410.127 1353.71 411.469 1353.71 413.154C1353.71 415.209 1353.21 416.958 1352.21 418.402C1351.23 419.827 1349.81 420.919 1347.94 421.678C1346.09 422.437 1343.86 422.817 1341.25 422.817Z" fill="white"/>
<rect x="770.891" y="547.015" width="391.444" height="97.1855" rx="48.5927" fill="white"/>
<path d="M831.95 616.434C831.032 616.434 830.041 616.318 828.977 616.086C827.912 615.866 827.062 615.567 826.426 615.188L828.775 609.071C829.374 609.412 829.894 609.583 830.335 609.583C831.277 609.583 831.748 608.851 831.748 607.385V587.604H839.382V608.887C839.382 611.159 838.715 612.984 837.382 614.364C836.06 615.744 834.25 616.434 831.95 616.434ZM835.565 583.593C834.757 583.593 834.017 583.397 833.344 583.007C832.671 582.604 832.133 582.066 831.729 581.395C831.338 580.723 831.142 579.985 831.142 579.179C831.142 578.373 831.338 577.64 831.729 576.981C832.133 576.309 832.671 575.778 833.344 575.387C834.017 574.984 834.757 574.783 835.565 574.783C836.372 574.783 837.106 574.984 837.767 575.387C838.44 575.778 838.972 576.309 839.364 576.981C839.767 577.64 839.969 578.373 839.969 579.179C839.969 579.985 839.767 580.723 839.364 581.395C838.972 582.066 838.44 582.604 837.767 583.007C837.106 583.397 836.372 583.593 835.565 583.593Z" fill="#5E4EEE"/>
<path d="M854.806 606.946C852.653 606.946 850.707 606.525 848.97 605.682C847.245 604.827 845.875 603.655 844.859 602.165C843.856 600.663 843.354 598.936 843.354 596.982C843.354 595.028 843.856 593.306 844.859 591.817C845.875 590.315 847.245 589.143 848.97 588.3C850.707 587.445 852.653 587.018 854.806 587.018C856.959 587.018 858.898 587.445 860.623 588.3C862.361 589.143 863.731 590.315 864.734 591.817C865.749 593.306 866.257 595.028 866.257 596.982C866.257 598.936 865.749 600.663 864.734 602.165C863.731 603.655 862.361 604.827 860.623 605.682C858.898 606.525 856.959 606.946 854.806 606.946ZM854.806 600.499C855.43 600.499 856.005 600.352 856.531 600.059C857.057 599.754 857.473 599.339 857.779 598.814C858.097 598.288 858.256 597.678 858.256 596.982C858.256 596.286 858.097 595.675 857.779 595.15C857.473 594.613 857.057 594.198 856.531 593.905C856.005 593.612 855.43 593.465 854.806 593.465C854.182 593.465 853.607 593.612 853.081 593.905C852.555 594.198 852.133 594.613 851.815 595.15C851.509 595.675 851.356 596.286 851.356 596.982C851.356 597.678 851.509 598.288 851.815 598.814C852.133 599.339 852.555 599.754 853.081 600.059C853.607 600.352 854.182 600.499 854.806 600.499Z" fill="#5E4EEE"/>
<path d="M870.135 606.36V587.604H877.77V606.36H870.135ZM873.953 583.593C873.145 583.593 872.405 583.397 871.732 583.007C871.059 582.604 870.521 582.066 870.117 581.395C869.726 580.723 869.53 579.985 869.53 579.179C869.53 578.373 869.726 577.64 870.117 576.981C870.521 576.309 871.059 575.778 871.732 575.387C872.405 574.984 873.145 574.783 873.953 574.783C874.76 574.783 875.494 574.984 876.155 575.387C876.828 575.778 877.36 576.309 877.751 576.981C878.155 577.64 878.357 578.373 878.357 579.179C878.357 579.985 878.155 580.723 877.751 581.395C877.36 582.066 876.828 582.604 876.155 583.007C875.494 583.397 874.76 583.593 873.953 583.593Z" fill="#5E4EEE"/>
<path d="M883.541 606.36V587.604H891.175V589.362C892.043 588.618 893.022 588.044 894.111 587.641C895.212 587.225 896.326 587.018 897.451 587.018C898.882 587.018 900.161 587.341 901.287 587.989C902.424 588.636 903.324 589.515 903.984 590.626C904.645 591.725 904.975 592.977 904.975 594.381V606.36H897.341V596.029C897.341 595.089 897.06 594.338 896.497 593.777C895.934 593.203 895.188 592.916 894.258 592.916C893.646 592.916 893.108 593.044 892.643 593.3C892.178 593.557 891.817 593.917 891.56 594.381C891.303 594.845 891.175 595.394 891.175 596.029V606.36H883.541Z" fill="#5E4EEE"/>
<path d="M926.2 606.946C924.585 606.946 923.123 606.775 921.814 606.433C920.517 606.103 919.398 605.603 918.456 604.931L921.465 599.656C922.371 600.218 923.221 600.645 924.016 600.938C924.824 601.231 925.558 601.378 926.219 601.378C926.488 601.378 926.696 601.353 926.842 601.304C927.002 601.256 927.118 601.182 927.191 601.085C927.265 600.975 927.301 600.834 927.301 600.663C927.301 600.358 927.191 600.12 926.971 599.949C926.763 599.766 926.42 599.577 925.943 599.381C925.466 599.186 924.83 598.917 924.035 598.575C923.288 598.246 922.585 597.879 921.924 597.476C921.276 597.073 920.75 596.561 920.346 595.938C919.942 595.315 919.74 594.521 919.74 593.557C919.74 592.275 920.107 591.145 920.842 590.168C921.576 589.191 922.597 588.428 923.906 587.879C925.215 587.329 926.726 587.055 928.439 587.055C929.308 587.055 930.28 587.14 931.357 587.311C932.446 587.482 933.712 587.763 935.156 588.154L932.77 593.172C930.898 592.464 929.479 592.11 928.512 592.11C928.035 592.11 927.662 592.183 927.393 592.33C927.136 592.476 927.008 592.653 927.008 592.861C927.008 593.154 927.234 593.435 927.687 593.703C928.152 593.972 928.69 594.216 929.302 594.436C929.913 594.656 930.445 594.845 930.898 595.004C931.73 595.285 932.476 595.633 933.137 596.048C933.81 596.463 934.342 597.012 934.734 597.696C935.137 598.38 935.339 599.278 935.339 600.389C935.339 601.817 934.984 603.02 934.275 603.997C933.577 604.962 932.55 605.694 931.192 606.195C929.834 606.696 928.17 606.946 926.2 606.946Z" fill="#5E4EEE"/>
<path d="M948.972 606.946C946.892 606.946 945.02 606.506 943.357 605.627C941.705 604.748 940.396 603.557 939.429 602.055C938.463 600.541 937.98 598.838 937.98 596.945C937.98 595.541 938.255 594.241 938.805 593.044C939.356 591.835 940.121 590.779 941.099 589.875C942.078 588.972 943.222 588.27 944.531 587.769C945.852 587.268 947.284 587.018 948.825 587.018C950.783 587.018 952.496 587.427 953.964 588.245C955.444 589.051 956.6 590.18 957.432 591.634C958.264 593.074 958.68 594.753 958.68 596.671C958.68 596.829 958.674 596.982 958.662 597.128C958.662 597.263 958.643 597.568 958.607 598.044H945.871C945.871 598.643 946.011 599.162 946.293 599.601C946.574 600.028 946.978 600.358 947.504 600.59C948.042 600.822 948.678 600.938 949.413 600.938C950.098 600.938 950.685 600.816 951.174 600.572C951.676 600.328 952.257 599.888 952.918 599.253L958.386 601.964C957.506 603.515 956.227 604.736 954.551 605.627C952.887 606.506 951.027 606.946 948.972 606.946ZM946.091 594.454H951.229C951.156 593.954 951.009 593.545 950.789 593.227C950.569 592.897 950.281 592.653 949.926 592.494C949.572 592.336 949.137 592.256 948.623 592.256C948.085 592.256 947.626 592.342 947.247 592.513C946.88 592.684 946.599 592.934 946.403 593.264C946.207 593.581 946.103 593.978 946.091 594.454Z" fill="#5E4EEE"/>
<path d="M962.897 606.36V587.604H970.531V590.242C971.314 589.228 972.225 588.44 973.265 587.879C974.317 587.305 975.4 587.018 976.513 587.018C977.235 587.018 978 587.14 978.807 587.384C979.615 587.628 980.282 587.946 980.808 588.337L977.615 594.747C977.162 594.405 976.624 594.131 976 593.923C975.388 593.716 974.825 593.612 974.311 593.612C973.663 593.612 973.045 593.783 972.458 594.125C971.883 594.454 971.418 594.888 971.063 595.425C970.708 595.962 970.531 596.542 970.531 597.165V606.36H962.897Z" fill="#5E4EEE"/>
<path d="M988.976 606.36L978.589 587.604H987.618L991.546 596.469L995.473 587.604H1004.5L994.115 606.36H988.976Z" fill="#5E4EEE"/>
<path d="M1015.25 606.946C1013.17 606.946 1011.29 606.506 1009.63 605.627C1007.98 604.748 1006.67 603.557 1005.7 602.055C1004.74 600.541 1004.25 598.838 1004.25 596.945C1004.25 595.541 1004.53 594.241 1005.08 593.044C1005.63 591.835 1006.39 590.779 1007.37 589.875C1008.35 588.972 1009.5 588.27 1010.8 587.769C1012.13 587.268 1013.56 587.018 1015.1 587.018C1017.06 587.018 1018.77 587.427 1020.24 588.245C1021.72 589.051 1022.87 590.18 1023.71 591.634C1024.54 593.074 1024.95 594.753 1024.95 596.671C1024.95 596.829 1024.95 596.982 1024.94 597.128C1024.94 597.263 1024.92 597.568 1024.88 598.044H1012.14C1012.14 598.643 1012.28 599.162 1012.57 599.601C1012.85 600.028 1013.25 600.358 1013.78 600.59C1014.32 600.822 1014.95 600.938 1015.69 600.938C1016.37 600.938 1016.96 600.816 1017.45 600.572C1017.95 600.328 1018.53 599.888 1019.19 599.253L1024.66 601.964C1023.78 603.515 1022.5 604.736 1020.82 605.627C1019.16 606.506 1017.3 606.946 1015.25 606.946ZM1012.36 594.454H1017.5C1017.43 593.954 1017.28 593.545 1017.06 593.227C1016.84 592.897 1016.55 592.653 1016.2 592.494C1015.84 592.336 1015.41 592.256 1014.9 592.256C1014.36 592.256 1013.9 592.342 1013.52 592.513C1013.15 592.684 1012.87 592.934 1012.68 593.264C1012.48 593.581 1012.38 593.978 1012.36 594.454Z" fill="#5E4EEE"/>
<path d="M1029.17 606.36V587.604H1036.8V590.242C1037.59 589.228 1038.5 588.44 1039.54 587.879C1040.59 587.305 1041.67 587.018 1042.79 587.018C1043.51 587.018 1044.27 587.14 1045.08 587.384C1045.89 587.628 1046.56 587.946 1047.08 588.337L1043.89 594.747C1043.44 594.405 1042.9 594.131 1042.27 593.923C1041.66 593.716 1041.1 593.612 1040.58 593.612C1039.94 593.612 1039.32 593.783 1038.73 594.125C1038.16 594.454 1037.69 594.888 1037.34 595.425C1036.98 595.962 1036.8 596.542 1036.8 597.165V606.36H1029.17Z" fill="#5E4EEE"/>
<path fill-rule="evenodd" clip-rule="evenodd" d="M1084.61 577.306C1086.2 575.716 1088.78 575.716 1090.37 577.306L1105.61 592.51C1107.2 594.099 1107.2 596.676 1105.61 598.266L1090.37 613.47C1088.78 615.059 1086.2 615.059 1084.61 613.47C1083.01 611.88 1083.01 609.303 1084.61 607.714L1092.88 599.458H1063.27V591.318H1092.88L1084.61 583.062C1083.01 581.472 1083.01 578.895 1084.61 577.306ZM1087.99 579.683C1087.71 579.407 1087.26 579.407 1086.99 579.683C1086.71 579.96 1086.71 580.408 1086.99 580.684L1101.01 594.68H1066.64V596.096H1101.01L1086.99 610.091C1086.71 610.368 1086.71 610.816 1086.99 611.092C1087.26 611.369 1087.71 611.369 1087.99 611.092L1103.22 595.888C1103.5 595.612 1103.5 595.164 1103.22 594.887L1087.99 579.683Z" fill="#5E4EEE"/>
<path d="M1086.99 579.683C1087.26 579.407 1087.71 579.407 1087.99 579.683L1103.22 594.887C1103.5 595.164 1103.5 595.612 1103.22 595.888L1087.99 611.092C1087.71 611.369 1087.26 611.369 1086.99 611.092C1086.71 610.816 1086.71 610.368 1086.99 610.091L1101.01 596.096H1066.64V594.68H1101.01L1086.99 580.684C1086.71 580.408 1086.71 579.96 1086.99 579.683Z" fill="#5E4EEE"/>
</svg>
