<svg width="5570" height="2011" viewBox="0 0 5570 2011" fill="none" xmlns="http://www.w3.org/2000/svg">
<path d="M625.785 343.327L666.744 264.941L691.046 225.119L718.2 166.644H766.005L673.476 343.327H625.785Z" fill="white" fill-opacity="0.75"/>
<path d="M187.06 287.484C178.084 287.484 169.603 285.882 161.617 282.678C153.707 279.474 146.709 275.011 140.624 269.289C134.539 263.568 129.747 256.969 126.248 249.493C122.749 241.94 121 233.892 121 225.348C121 217.185 122.635 209.404 125.906 202.004C129.253 194.527 133.892 187.852 139.825 181.978C145.758 176.104 152.718 171.489 160.704 168.132C168.691 164.699 177.4 162.983 186.831 162.983C194.362 162.983 201.587 164.051 208.509 166.187C215.507 168.246 221.021 170.84 225.052 173.968L211.247 202.118C206.531 198.761 200.599 197.083 193.449 197.083C187.136 197.083 181.849 198.494 177.59 201.317C173.33 204.14 170.136 207.725 168.006 212.074C165.952 216.422 164.926 220.809 164.926 225.233C164.926 230.345 166.105 235.036 168.463 239.308C170.82 243.58 174.167 247.013 178.503 249.607C182.838 252.125 187.896 253.383 193.677 253.383C197.328 253.383 200.675 252.926 203.717 252.01C206.76 251.019 209.27 249.798 211.247 248.348L225.052 276.499C220.945 279.55 215.469 282.144 208.623 284.28C201.778 286.416 194.59 287.484 187.06 287.484Z" fill="white" fill-opacity="0.75"/>
<path d="M242.994 283.822V87H284.637V283.822H242.994Z" fill="white" fill-opacity="0.75"/>
<path fill-rule="evenodd" clip-rule="evenodd" d="M364.636 287.484C353.911 287.484 344.175 284.814 335.428 279.474C326.681 274.057 319.721 266.657 314.549 257.274C309.377 247.814 306.791 237.058 306.791 225.004C306.791 213.332 309.263 202.843 314.207 193.536C319.151 184.152 325.958 176.714 334.63 171.222C343.301 165.729 353.303 162.983 364.636 162.983C372.014 162.983 379.012 164.241 385.629 166.759C392.322 169.276 397.989 172.824 402.629 177.401V166.644H444.273V283.822H402.629V271.692C397.152 276.88 391.219 280.809 384.83 283.479C378.517 286.149 371.786 287.484 364.636 287.484ZM390.877 248.692C386.922 250.98 382.358 252.125 377.186 252.125C372.09 252.125 367.526 250.98 363.495 248.692C359.54 246.327 356.421 243.123 354.139 239.079C351.857 234.96 350.717 230.345 350.717 225.233C350.717 220.046 351.857 215.43 354.139 211.387C356.497 207.344 359.654 204.178 363.609 201.889C367.64 199.524 372.166 198.342 377.186 198.342C382.282 198.342 386.808 199.524 390.763 201.889C394.718 204.178 397.799 207.344 400.005 211.387C402.286 215.43 403.427 220.046 403.427 225.233C403.427 230.421 402.324 235.036 400.119 239.079C397.913 243.123 394.832 246.327 390.877 248.692Z" fill="white" fill-opacity="0.75"/>
<path fill-rule="evenodd" clip-rule="evenodd" d="M475.76 343.327V166.644H517.404V177.401C522.12 172.824 527.71 169.276 534.176 166.759C540.641 164.241 547.525 162.983 554.826 162.983C566.084 162.983 576.086 165.691 584.833 171.107C593.656 176.524 600.578 183.923 605.598 193.307C610.694 202.69 613.242 213.332 613.242 225.233C613.242 236.982 610.732 247.547 605.712 256.931C600.692 266.314 593.846 273.752 585.175 279.245C576.504 284.738 566.73 287.484 555.853 287.484C548.704 287.484 541.82 286.149 535.203 283.479C528.661 280.733 522.728 276.804 517.404 271.692V343.327H475.76ZM556.652 248.692C552.697 250.98 548.171 252.125 543.075 252.125C537.979 252.125 533.415 250.98 529.384 248.692C525.353 246.403 522.196 243.237 519.914 239.194C517.632 235.074 516.491 230.459 516.491 225.348C516.491 220.16 517.632 215.545 519.914 211.501C522.272 207.458 525.429 204.254 529.384 201.889C533.415 199.524 537.941 198.342 542.961 198.342C548.057 198.342 552.545 199.524 556.424 201.889C560.379 204.254 563.498 207.458 565.779 211.501C568.137 215.545 569.316 220.198 569.316 225.462C569.316 230.573 568.175 235.151 565.893 239.194C563.688 243.161 560.607 246.327 556.652 248.692Z" fill="white" fill-opacity="0.75"/>
<path d="M686.085 220.973L661.784 260.795L606.22 162.498H654.025L686.085 220.973Z" fill="white" fill-opacity="0.75"/>
<path d="M1546.88 601.48C1524.85 601.48 1505.86 594.107 1489.89 579.36L1509.5 528.4C1520.32 537.733 1529.19 542.4 1536.1 542.4C1541.6 542.4 1545.99 540.067 1549.26 535.4C1552.62 530.733 1554.3 524.48 1554.3 516.64V366H1615.9V532.04C1615.9 554.16 1609.74 571.287 1597.42 583.42C1585.19 595.46 1568.34 601.48 1546.88 601.48ZM1736.28 601.48C1719.86 601.48 1705.02 598.26 1691.76 591.82C1678.6 585.287 1668.15 576.327 1660.4 564.94C1652.75 553.46 1648.92 540.253 1648.92 525.32C1648.92 510.387 1652.75 497.227 1660.4 485.84C1668.15 474.36 1678.6 465.4 1691.76 458.96C1705.02 452.427 1719.86 449.16 1736.28 449.16C1752.71 449.16 1767.5 452.427 1780.66 458.96C1793.92 465.4 1804.37 474.36 1812.02 485.84C1819.77 497.227 1823.64 510.387 1823.64 525.32C1823.64 540.253 1819.77 553.46 1812.02 564.94C1804.37 576.327 1793.92 585.287 1780.66 591.82C1767.5 598.26 1752.71 601.48 1736.28 601.48ZM1736.28 552.2C1741.04 552.2 1745.43 551.08 1749.44 548.84C1753.46 546.507 1756.63 543.333 1758.96 539.32C1761.39 535.307 1762.6 530.64 1762.6 525.32C1762.6 520 1761.39 515.333 1758.96 511.32C1756.63 507.213 1753.46 504.04 1749.44 501.8C1745.43 499.56 1741.04 498.44 1736.28 498.44C1731.52 498.44 1727.14 499.56 1723.12 501.8C1719.11 504.04 1715.89 507.213 1713.46 511.32C1711.13 515.333 1709.96 520 1709.96 525.32C1709.96 530.64 1711.13 535.307 1713.46 539.32C1715.89 543.333 1719.11 546.507 1723.12 548.84C1727.14 551.08 1731.52 552.2 1736.28 552.2ZM1853.23 597V453.64H1911.47V597H1853.23ZM1882.35 422.98C1876.19 422.98 1870.54 421.487 1865.41 418.5C1860.28 415.42 1856.17 411.313 1853.09 406.18C1850.1 401.047 1848.61 395.4 1848.61 389.24C1848.61 383.08 1850.1 377.48 1853.09 372.44C1856.17 367.307 1860.28 363.247 1865.41 360.26C1870.54 357.18 1876.19 355.64 1882.35 355.64C1888.51 355.64 1894.11 357.18 1899.15 360.26C1904.28 363.247 1908.34 367.307 1911.33 372.44C1914.41 377.48 1915.95 383.08 1915.95 389.24C1915.95 395.4 1914.41 401.047 1911.33 406.18C1908.34 411.313 1904.28 415.42 1899.15 418.5C1894.11 421.487 1888.51 422.98 1882.35 422.98ZM1955.5 597V453.64H2013.74V467.08C2020.36 461.387 2027.83 457 2036.14 453.92C2044.54 450.747 2053.03 449.16 2061.62 449.16C2072.54 449.16 2082.29 451.633 2090.88 456.58C2099.56 461.527 2106.42 468.247 2111.46 476.74C2116.5 485.14 2119.02 494.707 2119.02 505.44V597H2060.78V518.04C2060.78 510.853 2058.63 505.113 2054.34 500.82C2050.04 496.433 2044.35 494.24 2037.26 494.24C2032.59 494.24 2028.48 495.22 2024.94 497.18C2021.39 499.14 2018.64 501.893 2016.68 505.44C2014.72 508.987 2013.74 513.187 2013.74 518.04V597H1955.5ZM2311.6 601.48C2295.17 601.48 2280.33 598.26 2267.08 591.82C2253.92 585.287 2243.46 576.327 2235.72 564.94C2228.06 553.46 2224.24 540.253 2224.24 525.32C2224.24 510.387 2228.06 497.227 2235.72 485.84C2243.46 474.36 2253.92 465.4 2267.08 458.96C2280.33 452.427 2295.17 449.16 2311.6 449.16C2328.02 449.16 2342.82 452.427 2355.98 458.96C2369.23 465.4 2379.68 474.36 2387.34 485.84C2395.08 497.227 2398.96 510.387 2398.96 525.32C2398.96 540.253 2395.08 553.46 2387.34 564.94C2379.68 576.327 2369.23 585.287 2355.98 591.82C2342.82 598.26 2328.02 601.48 2311.6 601.48ZM2311.6 552.2C2316.36 552.2 2320.74 551.08 2324.76 548.84C2328.77 546.507 2331.94 543.333 2334.28 539.32C2336.7 535.307 2337.92 530.64 2337.92 525.32C2337.92 520 2336.7 515.333 2334.28 511.32C2331.94 507.213 2328.77 504.04 2324.76 501.8C2320.74 499.56 2316.36 498.44 2311.6 498.44C2306.84 498.44 2302.45 499.56 2298.44 501.8C2294.42 504.04 2291.2 507.213 2288.78 511.32C2286.44 515.333 2285.28 520 2285.28 525.32C2285.28 530.64 2286.44 535.307 2288.78 539.32C2291.2 543.333 2294.42 546.507 2298.44 548.84C2302.45 551.08 2306.84 552.2 2311.6 552.2ZM2507.91 601.48C2478.7 601.48 2457.56 596.113 2444.49 585.38C2431.52 574.647 2425.03 557.333 2425.03 533.44V453.64H2483.27V518.88C2483.27 532.04 2485.09 541.28 2488.73 546.6C2492.46 551.827 2498.9 554.44 2508.05 554.44C2517.1 554.44 2523.45 551.827 2527.09 546.6C2530.73 541.28 2532.55 532.04 2532.55 518.88V453.64H2590.79V533.44C2590.79 557.333 2584.26 574.647 2571.19 585.38C2558.22 596.113 2537.12 601.48 2507.91 601.48ZM2630.89 597V453.64H2689.13V473.8C2695.1 466.053 2702.05 460.033 2709.99 455.74C2718.01 451.353 2726.27 449.16 2734.77 449.16C2740.27 449.16 2746.11 450.093 2752.27 451.96C2758.43 453.827 2763.51 456.253 2767.53 459.24L2743.17 508.24C2739.71 505.627 2735.61 503.527 2730.85 501.94C2726.18 500.353 2721.89 499.56 2717.97 499.56C2713.02 499.56 2708.31 500.867 2703.83 503.48C2699.44 506 2695.89 509.313 2693.19 513.42C2690.48 517.527 2689.13 521.96 2689.13 526.72V597H2630.89ZM2865.21 597V366H2936.33C2952.76 366 2968.02 368.94 2982.11 374.82C2996.21 380.7 3008.53 388.913 3019.07 399.46C3029.71 410.007 3037.97 422.327 3043.85 436.42C3049.83 450.42 3052.81 465.54 3052.81 481.78C3052.81 498.02 3049.87 513.14 3043.99 527.14C3038.11 541.14 3029.85 553.367 3019.21 563.82C3008.67 574.273 2996.3 582.44 2982.11 588.32C2968.02 594.107 2952.76 597 2936.33 597H2865.21ZM2926.81 541.84H2929.05C2937.45 541.84 2945.11 540.393 2952.01 537.5C2959.01 534.513 2965.03 530.36 2970.07 525.04C2975.21 519.627 2979.17 513.233 2981.97 505.86C2984.77 498.487 2986.17 490.367 2986.17 481.5C2986.17 472.727 2984.77 464.653 2981.97 457.28C2979.17 449.907 2975.21 443.513 2970.07 438.1C2965.03 432.687 2959.01 428.533 2952.01 425.64C2945.11 422.653 2937.45 421.16 2929.05 421.16H2926.81V541.84ZM3082.88 597V453.64H3141.12V597H3082.88ZM3112 422.98C3105.84 422.98 3100.19 421.487 3095.06 418.5C3089.93 415.42 3085.82 411.313 3082.74 406.18C3079.75 401.047 3078.26 395.4 3078.26 389.24C3078.26 383.08 3079.75 377.48 3082.74 372.44C3085.82 367.307 3089.93 363.247 3095.06 360.26C3100.19 357.18 3105.84 355.64 3112 355.64C3118.16 355.64 3123.76 357.18 3128.8 360.26C3133.93 363.247 3137.99 367.307 3140.98 372.44C3144.06 377.48 3145.6 383.08 3145.6 389.24C3145.6 395.4 3144.06 401.047 3140.98 406.18C3137.99 411.313 3133.93 415.42 3128.8 418.5C3123.76 421.487 3118.16 422.98 3112 422.98ZM3228.12 601.48C3215.8 601.48 3204.65 600.173 3194.66 597.56C3184.77 595.04 3176.23 591.213 3169.04 586.08L3192 545.76C3198.91 550.053 3205.4 553.32 3211.46 555.56C3217.62 557.8 3223.22 558.92 3228.26 558.92C3230.32 558.92 3231.9 558.733 3233.02 558.36C3234.24 557.987 3235.12 557.427 3235.68 556.68C3236.24 555.84 3236.52 554.767 3236.52 553.46C3236.52 551.127 3235.68 549.307 3234 548C3232.42 546.6 3229.8 545.153 3226.16 543.66C3222.52 542.167 3217.67 540.113 3211.6 537.5C3205.91 534.98 3200.54 532.18 3195.5 529.1C3190.56 526.02 3186.54 522.1 3183.46 517.34C3180.38 512.58 3178.84 506.513 3178.84 499.14C3178.84 489.34 3181.64 480.707 3187.24 473.24C3192.84 465.773 3200.64 459.94 3210.62 455.74C3220.61 451.54 3232.14 449.44 3245.2 449.44C3251.83 449.44 3259.25 450.093 3267.46 451.4C3275.77 452.707 3285.43 454.853 3296.44 457.84L3278.24 496.2C3263.96 490.787 3253.14 488.08 3245.76 488.08C3242.12 488.08 3239.28 488.64 3237.22 489.76C3235.26 490.88 3234.28 492.233 3234.28 493.82C3234.28 496.06 3236.01 498.207 3239.46 500.26C3243.01 502.313 3247.12 504.18 3251.78 505.86C3256.45 507.54 3260.51 508.987 3263.96 510.2C3270.31 512.347 3276 515.007 3281.04 518.18C3286.18 521.353 3290.24 525.553 3293.22 530.78C3296.3 536.007 3297.84 542.867 3297.84 551.36C3297.84 562.28 3295.14 571.473 3289.72 578.94C3284.4 586.313 3276.56 591.913 3266.2 595.74C3255.84 599.567 3243.15 601.48 3228.12 601.48ZM3399.19 601.48C3388.17 601.48 3377.72 599.52 3367.83 595.6C3358.03 591.587 3349.35 586.08 3341.79 579.08C3334.23 572.08 3328.25 564.007 3323.87 554.86C3319.57 545.62 3317.43 535.82 3317.43 525.46C3317.43 515.753 3319.43 506.373 3323.45 497.32C3327.55 488.173 3333.25 480.007 3340.53 472.82C3347.9 465.54 3356.53 459.8 3366.43 455.6C3376.41 451.307 3387.24 449.16 3398.91 449.16C3408.05 449.16 3416.92 450.42 3425.51 452.94C3434.09 455.46 3440.72 458.493 3445.39 462.04L3426.35 501.24C3421.68 498.067 3415.71 496.48 3408.43 496.48C3401.52 496.48 3395.87 498.02 3391.49 501.1C3387.19 504.18 3384.02 507.96 3381.97 512.44C3380.01 516.92 3379.03 521.213 3379.03 525.32C3379.03 530.453 3380.19 535.213 3382.53 539.6C3384.95 543.987 3388.41 547.533 3392.89 550.24C3397.37 552.853 3402.64 554.16 3408.71 554.16C3412.44 554.16 3415.85 553.693 3418.93 552.76C3422.1 551.733 3424.57 550.613 3426.35 549.4L3445.39 588.6C3440.53 592.053 3433.91 595.04 3425.51 597.56C3417.2 600.173 3408.43 601.48 3399.19 601.48ZM3546.71 601.48C3530.29 601.48 3515.45 598.26 3502.19 591.82C3489.03 585.287 3478.58 576.327 3470.83 564.94C3463.18 553.46 3459.35 540.253 3459.35 525.32C3459.35 510.387 3463.18 497.227 3470.83 485.84C3478.58 474.36 3489.03 465.4 3502.19 458.96C3515.45 452.427 3530.29 449.16 3546.71 449.16C3563.14 449.16 3577.93 452.427 3591.09 458.96C3604.35 465.4 3614.8 474.36 3622.45 485.84C3630.2 497.227 3634.07 510.387 3634.07 525.32C3634.07 540.253 3630.2 553.46 3622.45 564.94C3614.8 576.327 3604.35 585.287 3591.09 591.82C3577.93 598.26 3563.14 601.48 3546.71 601.48ZM3546.71 552.2C3551.47 552.2 3555.86 551.08 3559.87 548.84C3563.89 546.507 3567.06 543.333 3569.39 539.32C3571.82 535.307 3573.03 530.64 3573.03 525.32C3573.03 520 3571.82 515.333 3569.39 511.32C3567.06 507.213 3563.89 504.04 3559.87 501.8C3555.86 499.56 3551.47 498.44 3546.71 498.44C3541.95 498.44 3537.57 499.56 3533.55 501.8C3529.54 504.04 3526.32 507.213 3523.89 511.32C3521.56 515.333 3520.39 520 3520.39 525.32C3520.39 530.64 3521.56 535.307 3523.89 539.32C3526.32 543.333 3529.54 546.507 3533.55 548.84C3537.57 551.08 3541.95 552.2 3546.71 552.2ZM3663.66 597V453.64H3721.9V473.8C3727.87 466.053 3734.83 460.033 3742.76 455.74C3750.79 451.353 3759.05 449.16 3767.54 449.16C3773.05 449.16 3778.88 450.093 3785.04 451.96C3791.2 453.827 3796.29 456.253 3800.3 459.24L3775.94 508.24C3772.49 505.627 3768.38 503.527 3763.62 501.94C3758.95 500.353 3754.66 499.56 3750.74 499.56C3745.79 499.56 3741.08 500.867 3736.6 503.48C3732.21 506 3728.67 509.313 3725.96 513.42C3723.25 517.527 3721.9 521.96 3721.9 526.72V597H3663.66ZM3872.98 601.48C3860.28 601.48 3848.62 598.26 3837.98 591.82C3827.34 585.38 3818.8 576.42 3812.36 564.94C3806.01 553.46 3802.84 540.253 3802.84 525.32C3802.84 510.853 3805.92 497.88 3812.08 486.4C3818.24 474.92 3826.68 465.867 3837.42 459.24C3848.24 452.52 3860.61 449.16 3874.52 449.16C3882.73 449.16 3890.52 450.373 3897.9 452.8C3905.27 455.133 3911.76 458.493 3917.36 462.88V356.2H3975.6V597H3917.36V585.8C3910.82 590.84 3903.78 594.713 3896.22 597.42C3888.75 600.127 3881 601.48 3872.98 601.48ZM3891.18 552.2C3896.5 552.2 3901.21 551.033 3905.32 548.7C3909.42 546.367 3912.64 543.193 3914.98 539.18C3917.31 535.167 3918.48 530.64 3918.48 525.6C3918.48 520.373 3917.26 515.753 3914.84 511.74C3912.5 507.633 3909.28 504.413 3905.18 502.08C3901.16 499.653 3896.59 498.44 3891.46 498.44C3886.32 498.44 3881.7 499.653 3877.6 502.08C3873.58 504.413 3870.36 507.633 3867.94 511.74C3865.6 515.847 3864.44 520.513 3864.44 525.74C3864.44 530.78 3865.56 535.307 3867.8 539.32C3870.04 543.333 3873.16 546.507 3877.18 548.84C3881.28 551.08 3885.95 552.2 3891.18 552.2ZM1742.88 920.52C1731.66 920.52 1722.93 916.963 1716.7 909.85C1710.47 902.663 1707.35 892.653 1707.35 879.82V829.99H1692.28V804.36H1707.35V762.12H1741.12V804.36H1765.87V829.99H1741.12V877.4C1741.12 881.653 1741.96 884.88 1743.65 887.08C1745.41 889.28 1747.87 890.38 1751.02 890.38C1754.54 890.38 1757.91 889.207 1761.14 886.86L1769.61 913.92C1765.8 915.973 1761.51 917.587 1756.74 918.76C1752.05 919.933 1747.43 920.52 1742.88 920.52ZM1854.9 920.52C1842.5 920.52 1831.32 917.99 1821.35 912.93C1811.37 907.797 1803.45 900.757 1797.59 891.81C1791.72 882.79 1788.79 872.413 1788.79 860.68C1788.79 848.947 1791.68 838.607 1797.48 829.66C1803.34 820.64 1811.26 813.6 1821.24 808.54C1831.28 803.407 1842.5 800.84 1854.9 800.84C1867.36 800.84 1878.58 803.407 1888.56 808.54C1898.53 813.6 1906.41 820.64 1912.21 829.66C1918.07 838.607 1921.01 848.947 1921.01 860.68C1921.01 872.413 1918.07 882.79 1912.21 891.81C1906.41 900.757 1898.53 907.797 1888.56 912.93C1878.58 917.99 1867.36 920.52 1854.9 920.52ZM1855.01 891.7C1860.73 891.7 1865.93 890.38 1870.63 887.74C1875.32 885.1 1879.02 881.47 1881.74 876.85C1884.45 872.157 1885.81 866.767 1885.81 860.68C1885.81 854.593 1884.45 849.24 1881.74 844.62C1879.02 839.927 1875.32 836.26 1870.63 833.62C1865.93 830.98 1860.73 829.66 1855.01 829.66C1849.21 829.66 1843.97 830.98 1839.28 833.62C1834.66 836.26 1830.99 839.927 1828.28 844.62C1825.56 849.24 1824.21 854.593 1824.21 860.68C1824.21 866.767 1825.56 872.157 1828.28 876.85C1830.99 881.47 1834.66 885.1 1839.28 887.74C1843.97 890.38 1849.21 891.7 1855.01 891.7ZM2064.43 977.5C2049.25 977.5 2036.49 974.713 2026.15 969.14C2015.81 963.64 2008.3 955.5 2003.6 944.72L2031.1 931.3C2034.18 936.507 2038.73 940.65 2044.74 943.73C2050.76 946.81 2057.28 948.35 2064.32 948.35C2070.7 948.35 2076.31 947.067 2081.15 944.5C2085.99 942.007 2089.77 938.45 2092.48 933.83C2095.2 929.283 2096.55 924.003 2096.55 917.99V902.15C2091.57 907.943 2085.66 912.453 2078.84 915.68C2072.02 918.907 2064.69 920.52 2056.84 920.52C2046.65 920.52 2037.34 917.99 2028.9 912.93C2020.54 907.797 2013.87 900.72 2008.88 891.7C2003.9 882.68 2001.4 872.34 2001.4 860.68C2001.4 849.24 2003.82 839.047 2008.66 830.1C2013.58 821.08 2020.25 813.967 2028.68 808.76C2037.19 803.48 2046.87 800.84 2057.72 800.84C2065.64 800.84 2072.98 802.38 2079.72 805.46C2086.47 808.467 2092.08 812.683 2096.55 818.11V804.36H2130.32V920.08C2130.32 931.153 2127.9 941.017 2123.06 949.67C2118.3 958.323 2111.04 965.107 2101.28 970.02C2091.53 975.007 2079.25 977.5 2064.43 977.5ZM2066.96 891.81C2072.9 891.81 2078.15 890.49 2082.69 887.85C2087.31 885.137 2090.91 881.47 2093.47 876.85C2096.04 872.157 2097.32 866.84 2097.32 860.9C2097.32 854.813 2096 849.423 2093.36 844.73C2090.8 840.037 2087.24 836.333 2082.69 833.62C2078.15 830.907 2072.98 829.55 2067.18 829.55C2061.39 829.55 2056.22 830.907 2051.67 833.62C2047.13 836.333 2043.53 840.073 2040.89 844.84C2038.25 849.533 2036.93 854.887 2036.93 860.9C2036.93 866.84 2038.22 872.157 2040.78 876.85C2043.35 881.47 2046.91 885.137 2051.45 887.85C2056 890.49 2061.17 891.81 2066.96 891.81ZM2223.09 920.52C2210.92 920.52 2199.99 917.917 2190.31 912.71C2180.71 907.43 2173.08 900.28 2167.43 891.26C2161.79 882.24 2158.96 872.047 2158.96 860.68C2158.96 852.32 2160.54 844.51 2163.69 837.25C2166.92 829.99 2171.39 823.647 2177.11 818.22C2182.83 812.72 2189.47 808.467 2197.02 805.46C2204.58 802.38 2212.75 800.84 2221.55 800.84C2233.29 800.84 2243.55 803.297 2252.35 808.21C2261.23 813.05 2268.12 819.797 2273.03 828.45C2278.02 837.103 2280.51 847.187 2280.51 858.7C2280.51 859.653 2280.48 860.497 2280.4 861.23C2280.4 861.89 2280.29 863.173 2280.07 865.08H2193.72C2193.72 870.8 2195.01 875.787 2197.57 880.04C2200.21 884.293 2203.88 887.63 2208.57 890.05C2213.27 892.397 2218.73 893.57 2224.96 893.57C2230.83 893.57 2236 892.433 2240.47 890.16C2245.02 887.887 2249.38 884.257 2253.56 879.27L2277.87 891.48C2272.59 900.573 2265.11 907.687 2255.43 912.82C2245.75 917.953 2234.97 920.52 2223.09 920.52ZM2194.93 846.38H2247.29C2246.56 842.053 2244.98 838.313 2242.56 835.16C2240.22 832.007 2237.21 829.587 2233.54 827.9C2229.88 826.213 2225.73 825.37 2221.11 825.37C2216.2 825.37 2211.87 826.213 2208.13 827.9C2204.39 829.587 2201.39 832.007 2199.11 835.16C2196.84 838.313 2195.45 842.053 2194.93 846.38ZM2348.74 920.52C2337.52 920.52 2328.79 916.963 2322.56 909.85C2316.33 902.663 2313.21 892.653 2313.21 879.82V829.99H2298.14V804.36H2313.21V762.12H2346.98V804.36H2371.73V829.99H2346.98V877.4C2346.98 881.653 2347.82 884.88 2349.51 887.08C2351.27 889.28 2353.73 890.38 2356.88 890.38C2360.4 890.38 2363.77 889.207 2367 886.86L2375.47 913.92C2371.66 915.973 2367.37 917.587 2362.6 918.76C2357.91 919.933 2353.29 920.52 2348.74 920.52ZM2518.07 920.52C2505.9 920.52 2494.97 917.917 2485.29 912.71C2475.69 907.43 2468.06 900.28 2462.41 891.26C2456.77 882.24 2453.94 872.047 2453.94 860.68C2453.94 852.32 2455.52 844.51 2458.67 837.25C2461.9 829.99 2466.37 823.647 2472.09 818.22C2477.81 812.72 2484.45 808.467 2492 805.46C2499.56 802.38 2507.73 800.84 2516.53 800.84C2528.27 800.84 2538.53 803.297 2547.33 808.21C2556.21 813.05 2563.1 819.797 2568.01 828.45C2573 837.103 2575.49 847.187 2575.49 858.7C2575.49 859.653 2575.46 860.497 2575.38 861.23C2575.38 861.89 2575.27 863.173 2575.05 865.08H2488.7C2488.7 870.8 2489.99 875.787 2492.55 880.04C2495.19 884.293 2498.86 887.63 2503.55 890.05C2508.25 892.397 2513.71 893.57 2519.94 893.57C2525.81 893.57 2530.98 892.433 2535.45 890.16C2540 887.887 2544.36 884.257 2548.54 879.27L2572.85 891.48C2567.57 900.573 2560.09 907.687 2550.41 912.82C2540.73 917.953 2529.95 920.52 2518.07 920.52ZM2489.91 846.38H2542.27C2541.54 842.053 2539.96 838.313 2537.54 835.16C2535.2 832.007 2532.19 829.587 2528.52 827.9C2524.86 826.213 2520.71 825.37 2516.09 825.37C2511.18 825.37 2506.85 826.213 2503.11 827.9C2499.37 829.587 2496.37 832.007 2494.09 835.16C2491.82 838.313 2490.43 842.053 2489.91 846.38ZM2651.86 920.52C2641.52 920.52 2632.1 917.953 2623.59 912.82C2615.16 907.613 2608.45 900.5 2603.46 891.48C2598.55 882.387 2596.09 872.047 2596.09 860.46C2596.09 849.167 2598.47 839.047 2603.24 830.1C2608.01 821.08 2614.57 813.967 2622.93 808.76C2631.36 803.48 2641.01 800.84 2651.86 800.84C2659.85 800.84 2667.3 802.38 2674.19 805.46C2681.16 808.467 2686.84 812.683 2691.24 818.11V804.36H2725.01V917H2691.24V902.15C2686.11 908.09 2680.2 912.637 2673.53 915.79C2666.86 918.943 2659.63 920.52 2651.86 920.52ZM2661.87 891.81C2667.74 891.81 2672.94 890.49 2677.49 887.85C2682.04 885.137 2685.59 881.433 2688.16 876.74C2690.73 872.047 2692.01 866.693 2692.01 860.68C2692.01 854.593 2690.69 849.24 2688.05 844.62C2685.48 839.927 2681.93 836.26 2677.38 833.62C2672.91 830.907 2667.74 829.55 2661.87 829.55C2656.08 829.55 2650.91 830.907 2646.36 833.62C2641.81 836.26 2638.22 839.927 2635.58 844.62C2632.94 849.313 2631.62 854.667 2631.62 860.68C2631.62 866.693 2632.9 872.047 2635.47 876.74C2638.11 881.433 2641.7 885.137 2646.25 887.85C2650.8 890.49 2656 891.81 2661.87 891.81ZM2764.73 917V804.36H2798.5V820.53C2802.68 814.223 2807.78 809.383 2813.79 806.01C2819.88 802.563 2826.41 800.84 2833.37 800.84C2837.33 800.84 2841.44 801.427 2845.69 802.6C2849.95 803.773 2853.5 805.277 2856.36 807.11L2842.28 835.6C2839.79 833.913 2836.86 832.593 2833.48 831.64C2830.18 830.613 2827.1 830.1 2824.24 830.1C2819.84 830.1 2815.66 831.237 2811.7 833.51C2807.74 835.783 2804.55 838.753 2802.13 842.42C2799.71 846.013 2798.5 849.9 2798.5 854.08V917H2764.73ZM2875.16 917V727.8H2908.93V917H2875.16ZM2942.73 974.2L2979.14 902.92L2925.57 804.36H2964.29L2998.83 870.36L3028.75 804.36H3067.47L2981.34 974.2H2942.73ZM3192.41 920.52C3182.07 920.52 3172.64 917.953 3164.14 912.82C3155.7 907.613 3148.99 900.5 3144.01 891.48C3139.09 882.387 3136.64 872.047 3136.64 860.46C3136.64 849.167 3139.02 839.047 3143.79 830.1C3148.55 821.08 3155.12 813.967 3163.48 808.76C3171.91 803.48 3181.55 800.84 3192.41 800.84C3200.4 800.84 3207.84 802.38 3214.74 805.46C3221.7 808.467 3227.39 812.683 3231.79 818.11V804.36H3265.56V917H3231.79V902.15C3226.65 908.09 3220.75 912.637 3214.08 915.79C3207.4 918.943 3200.18 920.52 3192.41 920.52ZM3202.42 891.81C3208.28 891.81 3213.49 890.49 3218.04 887.85C3222.58 885.137 3226.14 881.433 3228.71 876.74C3231.27 872.047 3232.56 866.693 3232.56 860.68C3232.56 854.593 3231.24 849.24 3228.6 844.62C3226.03 839.927 3222.47 836.26 3217.93 833.62C3213.45 830.907 3208.28 829.55 3202.42 829.55C3196.62 829.55 3191.45 830.907 3186.91 833.62C3182.36 836.26 3178.77 839.927 3176.13 844.62C3173.49 849.313 3172.17 854.667 3172.17 860.68C3172.17 866.693 3173.45 872.047 3176.02 876.74C3178.66 881.433 3182.25 885.137 3186.8 887.85C3191.34 890.49 3196.55 891.81 3202.42 891.81ZM3357.97 920.52C3349.39 920.52 3341.29 918.98 3333.66 915.9C3326.11 912.82 3319.43 908.567 3313.64 903.14C3307.85 897.64 3303.3 891.297 3300 884.11C3296.7 876.85 3295.05 869.077 3295.05 860.79C3295.05 852.797 3296.59 845.207 3299.67 838.02C3302.82 830.833 3307.22 824.453 3312.87 818.88C3318.59 813.307 3325.26 808.907 3332.89 805.68C3340.59 802.453 3348.91 800.84 3357.86 800.84C3365.12 800.84 3372.09 801.867 3378.76 803.92C3385.51 805.973 3390.93 808.613 3395.04 811.84L3383.49 834.61C3377.99 830.577 3371.17 828.56 3363.03 828.56C3356.06 828.56 3350.16 830.1 3345.32 833.18C3340.48 836.26 3336.78 840.257 3334.21 845.17C3331.72 850.083 3330.47 855.253 3330.47 860.68C3330.47 866.62 3331.83 872.047 3334.54 876.96C3337.25 881.8 3341.07 885.65 3345.98 888.51C3350.97 891.37 3356.72 892.8 3363.25 892.8C3367.28 892.8 3371.06 892.25 3374.58 891.15C3378.1 890.05 3381.07 888.583 3383.49 886.75L3395.04 909.52C3390.86 912.673 3385.47 915.277 3378.87 917.33C3372.27 919.457 3365.3 920.52 3357.97 920.52ZM3475.06 920.52C3466.48 920.52 3458.38 918.98 3450.75 915.9C3443.2 912.82 3436.52 908.567 3430.73 903.14C3424.94 897.64 3420.39 891.297 3417.09 884.11C3413.79 876.85 3412.14 869.077 3412.14 860.79C3412.14 852.797 3413.68 845.207 3416.76 838.02C3419.91 830.833 3424.31 824.453 3429.96 818.88C3435.68 813.307 3442.35 808.907 3449.98 805.68C3457.68 802.453 3466 800.84 3474.95 800.84C3482.21 800.84 3489.18 801.867 3495.85 803.92C3502.6 805.973 3508.02 808.613 3512.13 811.84L3500.58 834.61C3495.08 830.577 3488.26 828.56 3480.12 828.56C3473.15 828.56 3467.25 830.1 3462.41 833.18C3457.57 836.26 3453.87 840.257 3451.3 845.17C3448.81 850.083 3447.56 855.253 3447.56 860.68C3447.56 866.62 3448.92 872.047 3451.63 876.96C3454.34 881.8 3458.16 885.65 3463.07 888.51C3468.06 891.37 3473.81 892.8 3480.34 892.8C3484.37 892.8 3488.15 892.25 3491.67 891.15C3495.19 890.05 3498.16 888.583 3500.58 886.75L3512.13 909.52C3507.95 912.673 3502.56 915.277 3495.96 917.33C3489.36 919.457 3482.39 920.52 3475.06 920.52ZM3593.58 920.52C3581.41 920.52 3570.48 917.917 3560.8 912.71C3551.19 907.43 3543.57 900.28 3537.92 891.26C3532.27 882.24 3529.45 872.047 3529.45 860.68C3529.45 852.32 3531.03 844.51 3534.18 837.25C3537.41 829.99 3541.88 823.647 3547.6 818.22C3553.32 812.72 3559.96 808.467 3567.51 805.46C3575.06 802.38 3583.24 800.84 3592.04 800.84C3603.77 800.84 3614.04 803.297 3622.84 808.21C3631.71 813.05 3638.61 819.797 3643.52 828.45C3648.51 837.103 3651 847.187 3651 858.7C3651 859.653 3650.96 860.497 3650.89 861.23C3650.89 861.89 3650.78 863.173 3650.56 865.08H3564.21C3564.21 870.8 3565.49 875.787 3568.06 880.04C3570.7 884.293 3574.37 887.63 3579.06 890.05C3583.75 892.397 3589.22 893.57 3595.45 893.57C3601.32 893.57 3606.49 892.433 3610.96 890.16C3615.51 887.887 3619.87 884.257 3624.05 879.27L3648.36 891.48C3643.08 900.573 3635.6 907.687 3625.92 912.82C3616.24 917.953 3605.46 920.52 3593.58 920.52ZM3565.42 846.38H3617.78C3617.05 842.053 3615.47 838.313 3613.05 835.16C3610.7 832.007 3607.7 829.587 3604.03 827.9C3600.36 826.213 3596.22 825.37 3591.6 825.37C3586.69 825.37 3582.36 826.213 3578.62 827.9C3574.88 829.587 3571.87 832.007 3569.6 835.16C3567.33 838.313 3565.93 842.053 3565.42 846.38ZM3712.51 920.52C3702.98 920.52 3694.44 919.017 3686.88 916.01C3679.4 913.003 3673.17 908.603 3668.18 902.81L3682.37 880.15C3687.07 885.137 3691.98 888.95 3697.11 891.59C3702.25 894.23 3707.38 895.55 3712.51 895.55C3715.37 895.55 3717.83 895.073 3719.88 894.12C3722.01 893.167 3723.66 891.81 3724.83 890.05C3726.08 888.217 3726.7 886.017 3726.7 883.45C3726.7 880.517 3725.86 878.207 3724.17 876.52C3722.56 874.833 3720.07 873.293 3716.69 871.9C3713.32 870.433 3708.96 868.6 3703.6 866.4C3699.06 864.493 3694.69 862.33 3690.51 859.91C3686.33 857.49 3682.92 854.41 3680.28 850.67C3677.72 846.93 3676.43 842.2 3676.43 836.48C3676.43 829.513 3678.38 823.39 3682.26 818.11C3686.15 812.757 3691.5 808.577 3698.32 805.57C3705.22 802.563 3713.14 801.06 3722.08 801.06C3727.66 801.06 3733.49 801.903 3739.57 803.59C3745.73 805.277 3752.3 807.843 3759.26 811.29L3747.71 832.96C3738.25 826.873 3729.78 823.83 3722.3 823.83C3718.12 823.83 3714.79 824.747 3712.29 826.58C3709.8 828.413 3708.55 830.723 3708.55 833.51C3708.55 836.15 3709.84 838.46 3712.4 840.44C3715.04 842.347 3718.23 844.07 3721.97 845.61C3725.79 847.077 3729.42 848.433 3732.86 849.68C3738.51 851.733 3743.5 854.007 3747.82 856.5C3752.22 858.993 3755.67 862.257 3758.16 866.29C3760.66 870.25 3761.9 875.567 3761.9 882.24C3761.9 890.38 3759.92 897.31 3755.96 903.03C3752.08 908.677 3746.43 913.003 3739.02 916.01C3731.69 919.017 3722.85 920.52 3712.51 920.52ZM3825.09 920.52C3815.56 920.52 3807.01 919.017 3799.46 916.01C3791.98 913.003 3785.75 908.603 3780.76 902.81L3794.95 880.15C3799.64 885.137 3804.56 888.95 3809.69 891.59C3814.82 894.23 3819.96 895.55 3825.09 895.55C3827.95 895.55 3830.41 895.073 3832.46 894.12C3834.59 893.167 3836.24 891.81 3837.41 890.05C3838.66 888.217 3839.28 886.017 3839.28 883.45C3839.28 880.517 3838.44 878.207 3836.75 876.52C3835.14 874.833 3832.64 873.293 3829.27 871.9C3825.9 870.433 3821.53 868.6 3816.18 866.4C3811.63 864.493 3807.27 862.33 3803.09 859.91C3798.91 857.49 3795.5 854.41 3792.86 850.67C3790.29 846.93 3789.01 842.2 3789.01 836.48C3789.01 829.513 3790.95 823.39 3794.84 818.11C3798.73 812.757 3804.08 808.577 3810.9 805.57C3817.79 802.563 3825.71 801.06 3834.66 801.06C3840.23 801.06 3846.06 801.903 3852.15 803.59C3858.31 805.277 3864.87 807.843 3871.84 811.29L3860.29 832.96C3850.83 826.873 3842.36 823.83 3834.88 823.83C3830.7 823.83 3827.36 824.747 3824.87 826.58C3822.38 828.413 3821.13 830.723 3821.13 833.51C3821.13 836.15 3822.41 838.46 3824.98 840.44C3827.62 842.347 3830.81 844.07 3834.55 845.61C3838.36 847.077 3841.99 848.433 3845.44 849.68C3851.09 851.733 3856.07 854.007 3860.4 856.5C3864.8 858.993 3868.25 862.257 3870.74 866.29C3873.23 870.25 3874.48 875.567 3874.48 882.24C3874.48 890.38 3872.5 897.31 3868.54 903.03C3864.65 908.677 3859.01 913.003 3851.6 916.01C3844.27 919.017 3835.43 920.52 3825.09 920.52Z" fill="white"/>
<rect x="1872" y="1253" width="1826.31" height="401" rx="200.5" fill="white"/>
<path d="M2138.52 1553C2134.12 1553 2129.36 1552.44 2124.25 1551.33C2119.14 1550.27 2115.05 1548.84 2112 1547.02L2123.28 1517.64C2126.16 1519.29 2128.65 1520.11 2130.77 1520.11C2135.29 1520.11 2137.55 1516.59 2137.55 1509.55V1414.57H2174.21V1516.76C2174.21 1527.67 2171.01 1536.44 2164.61 1543.06C2158.26 1549.69 2149.57 1553 2138.52 1553ZM2155.88 1395.3C2152.01 1395.3 2148.45 1394.37 2145.22 1392.49C2141.99 1390.55 2139.41 1387.98 2137.47 1384.75C2135.59 1381.53 2134.65 1377.98 2134.65 1374.11C2134.65 1370.24 2135.59 1366.72 2137.47 1363.55C2139.41 1360.33 2141.99 1357.78 2145.22 1355.9C2148.45 1353.97 2152.01 1353 2155.88 1353C2159.76 1353 2163.29 1353.97 2166.46 1355.9C2169.69 1357.78 2172.25 1360.33 2174.13 1363.55C2176.06 1366.72 2177.03 1370.24 2177.03 1374.11C2177.03 1377.98 2176.06 1381.53 2174.13 1384.75C2172.25 1387.98 2169.69 1390.55 2166.46 1392.49C2163.29 1394.37 2159.76 1395.3 2155.88 1395.3Z" fill="#5C47EF"/>
<path d="M2248.28 1507.44C2237.94 1507.44 2228.6 1505.42 2220.25 1501.37C2211.97 1497.27 2205.39 1491.64 2200.51 1484.49C2195.7 1477.27 2193.29 1468.98 2193.29 1459.6C2193.29 1450.21 2195.7 1441.95 2200.51 1434.79C2205.39 1427.58 2211.97 1421.95 2220.25 1417.91C2228.6 1413.8 2237.94 1411.75 2248.28 1411.75C2258.62 1411.75 2267.93 1413.8 2276.21 1417.91C2284.55 1421.95 2291.13 1427.58 2295.95 1434.79C2300.83 1441.95 2303.26 1450.21 2303.26 1459.6C2303.26 1468.98 2300.83 1477.27 2295.95 1484.49C2291.13 1491.64 2284.55 1497.27 2276.21 1501.37C2267.93 1505.42 2258.62 1507.44 2248.28 1507.44ZM2248.28 1476.48C2251.27 1476.48 2254.03 1475.78 2256.56 1474.37C2259.09 1472.91 2261.08 1470.91 2262.55 1468.39C2264.08 1465.87 2264.84 1462.94 2264.84 1459.6C2264.84 1456.25 2264.08 1453.32 2262.55 1450.8C2261.08 1448.22 2259.09 1446.23 2256.56 1444.82C2254.03 1443.41 2251.27 1442.71 2248.28 1442.71C2245.28 1442.71 2242.52 1443.41 2239.99 1444.82C2237.47 1446.23 2235.44 1448.22 2233.91 1450.8C2232.44 1453.32 2231.71 1456.25 2231.71 1459.6C2231.71 1462.94 2232.44 1465.87 2233.91 1468.39C2235.44 1470.91 2237.47 1472.91 2239.99 1474.37C2242.52 1475.78 2245.28 1476.48 2248.28 1476.48Z" fill="#5C47EF"/>
<path d="M2321.89 1504.63V1414.57H2358.54V1504.63H2321.89ZM2340.21 1395.3C2336.34 1395.3 2332.78 1394.37 2329.55 1392.49C2326.32 1390.55 2323.74 1387.98 2321.8 1384.75C2319.92 1381.53 2318.98 1377.98 2318.98 1374.11C2318.98 1370.24 2319.92 1366.72 2321.8 1363.55C2323.74 1360.33 2326.32 1357.78 2329.55 1355.9C2332.78 1353.97 2336.34 1353 2340.21 1353C2344.09 1353 2347.62 1353.97 2350.79 1355.9C2354.02 1357.78 2356.58 1360.33 2358.46 1363.55C2360.39 1366.72 2361.36 1370.24 2361.36 1374.11C2361.36 1377.98 2360.39 1381.53 2358.46 1384.75C2356.58 1387.98 2354.02 1390.55 2350.79 1392.49C2347.62 1394.37 2344.09 1395.3 2340.21 1395.3Z" fill="#5C47EF"/>
<path d="M2386.25 1504.63V1414.57H2422.91V1423.01C2427.08 1419.43 2431.78 1416.68 2437.01 1414.74C2442.3 1412.75 2447.65 1411.75 2453.05 1411.75C2459.92 1411.75 2466.06 1413.3 2471.47 1416.41C2476.93 1419.52 2481.25 1423.74 2484.42 1429.08C2487.59 1434.35 2489.18 1440.36 2489.18 1447.11V1504.63H2452.52V1455.02C2452.52 1450.51 2451.17 1446.9 2448.47 1444.2C2445.77 1441.45 2442.18 1440.07 2437.72 1440.07C2434.78 1440.07 2432.2 1440.69 2429.96 1441.92C2427.73 1443.15 2426 1444.88 2424.76 1447.11C2423.53 1449.34 2422.91 1451.97 2422.91 1455.02V1504.63H2386.25Z" fill="#5C47EF"/>
<path d="M2591.1 1507.44C2583.34 1507.44 2576.32 1506.62 2570.04 1504.98C2563.81 1503.4 2558.43 1500.99 2553.91 1497.77L2568.36 1472.44C2572.71 1475.13 2576.79 1477.19 2580.61 1478.59C2584.49 1480 2588.01 1480.7 2591.19 1480.7C2592.48 1480.7 2593.48 1480.59 2594.18 1480.35C2594.95 1480.12 2595.5 1479.77 2595.86 1479.3C2596.21 1478.77 2596.39 1478.1 2596.39 1477.27C2596.39 1475.81 2595.86 1474.67 2594.8 1473.84C2593.8 1472.96 2592.16 1472.06 2589.86 1471.12C2587.57 1470.18 2584.52 1468.89 2580.7 1467.25C2577.12 1465.66 2573.74 1463.91 2570.57 1461.97C2567.45 1460.04 2564.93 1457.57 2562.99 1454.58C2561.05 1451.59 2560.08 1447.78 2560.08 1443.15C2560.08 1436.99 2561.84 1431.57 2565.37 1426.88C2568.89 1422.19 2573.8 1418.52 2580.08 1415.88C2586.37 1413.25 2593.62 1411.93 2601.85 1411.93C2606.02 1411.93 2610.69 1412.34 2615.86 1413.16C2621.09 1413.98 2627.17 1415.33 2634.1 1417.2L2622.65 1441.3C2613.66 1437.9 2606.84 1436.2 2602.2 1436.2C2599.91 1436.2 2598.12 1436.55 2596.83 1437.26C2595.59 1437.96 2594.98 1438.81 2594.98 1439.81C2594.98 1441.21 2596.06 1442.56 2598.24 1443.85C2600.47 1445.14 2603.05 1446.32 2605.99 1447.37C2608.93 1448.43 2611.48 1449.34 2613.66 1450.1C2617.65 1451.45 2621.24 1453.12 2624.41 1455.11C2627.64 1457.1 2630.19 1459.74 2632.07 1463.03C2634.01 1466.31 2634.98 1470.62 2634.98 1475.96C2634.98 1482.82 2633.28 1488.59 2629.87 1493.28C2626.52 1497.91 2621.59 1501.43 2615.07 1503.84C2608.55 1506.24 2600.56 1507.44 2591.1 1507.44Z" fill="#5C47EF"/>
<path d="M2700.44 1507.44C2690.46 1507.44 2681.47 1505.33 2673.48 1501.11C2665.55 1496.89 2659.26 1491.17 2654.62 1483.96C2649.98 1476.69 2647.66 1468.51 2647.66 1459.42C2647.66 1452.68 2648.98 1446.43 2651.63 1440.69C2654.27 1434.88 2657.94 1429.81 2662.64 1425.47C2667.34 1421.13 2672.83 1417.76 2679.12 1415.36C2685.46 1412.95 2692.34 1411.75 2699.74 1411.75C2709.14 1411.75 2717.36 1413.72 2724.41 1417.64C2731.52 1421.51 2737.07 1426.94 2741.07 1433.91C2745.06 1440.83 2747.06 1448.9 2747.06 1458.1C2747.06 1458.86 2747.03 1459.6 2746.97 1460.3C2746.97 1460.94 2746.88 1462.41 2746.71 1464.7H2685.55C2685.55 1467.57 2686.23 1470.06 2687.58 1472.17C2688.93 1474.23 2690.87 1475.81 2693.4 1476.92C2695.98 1478.04 2699.03 1478.59 2702.56 1478.59C2705.85 1478.59 2708.67 1478.01 2711.02 1476.83C2713.43 1475.66 2716.22 1473.55 2719.39 1470.5L2745.65 1483.52C2741.42 1490.97 2735.28 1496.83 2727.23 1501.11C2719.24 1505.33 2710.31 1507.44 2700.44 1507.44ZM2686.61 1447.46H2711.28C2710.93 1445.06 2710.23 1443.09 2709.17 1441.57C2708.11 1439.98 2706.73 1438.81 2705.03 1438.05C2703.32 1437.29 2701.24 1436.91 2698.77 1436.91C2696.19 1436.91 2693.98 1437.32 2692.16 1438.14C2690.4 1438.96 2689.05 1440.16 2688.11 1441.74C2687.17 1443.27 2686.67 1445.17 2686.61 1447.46Z" fill="#5C47EF"/>
<path d="M2767.31 1504.63V1414.57H2803.97V1427.23C2807.73 1422.36 2812.1 1418.58 2817.1 1415.88C2822.15 1413.13 2827.35 1411.75 2832.69 1411.75C2836.16 1411.75 2839.83 1412.34 2843.71 1413.51C2847.59 1414.68 2850.79 1416.21 2853.31 1418.08L2837.98 1448.87C2835.81 1447.22 2833.22 1445.91 2830.23 1444.91C2827.29 1443.91 2824.59 1443.41 2822.12 1443.41C2819.01 1443.41 2816.04 1444.23 2813.22 1445.88C2810.46 1447.46 2808.22 1449.54 2806.52 1452.12C2804.82 1454.7 2803.97 1457.49 2803.97 1460.48V1504.63H2767.31Z" fill="#5C47EF"/>
<path d="M2892.54 1504.63L2842.66 1414.57H2886.02L2904.87 1457.13L2923.73 1414.57H2967.09L2917.21 1504.63H2892.54Z" fill="#5C47EF"/>
<path d="M3018.68 1507.44C3008.69 1507.44 2999.7 1505.33 2991.71 1501.11C2983.78 1496.89 2977.5 1491.17 2972.85 1483.96C2968.21 1476.69 2965.89 1468.51 2965.89 1459.42C2965.89 1452.68 2967.21 1446.43 2969.86 1440.69C2972.5 1434.88 2976.17 1429.81 2980.87 1425.47C2985.57 1421.13 2991.07 1417.76 2997.35 1415.36C3003.7 1412.95 3010.57 1411.75 3017.97 1411.75C3027.37 1411.75 3035.6 1413.72 3042.65 1417.64C3049.75 1421.51 3055.31 1426.94 3059.3 1433.91C3063.3 1440.83 3065.29 1448.9 3065.29 1458.1C3065.29 1458.86 3065.26 1459.6 3065.2 1460.3C3065.2 1460.94 3065.12 1462.41 3064.94 1464.7H3003.78C3003.78 1467.57 3004.46 1470.06 3005.81 1472.17C3007.16 1474.23 3009.1 1475.81 3011.63 1476.92C3014.21 1478.04 3017.27 1478.59 3020.79 1478.59C3024.08 1478.59 3026.9 1478.01 3029.25 1476.83C3031.66 1475.66 3034.45 1473.55 3037.62 1470.5L3063.88 1483.52C3059.65 1490.97 3053.51 1496.83 3045.47 1501.11C3037.48 1505.33 3028.55 1507.44 3018.68 1507.44ZM3004.84 1447.46H3029.52C3029.16 1445.06 3028.46 1443.09 3027.4 1441.57C3026.34 1439.98 3024.96 1438.81 3023.26 1438.05C3021.56 1437.29 3019.47 1436.91 3017 1436.91C3014.42 1436.91 3012.22 1437.32 3010.39 1438.14C3008.63 1438.96 3007.28 1440.16 3006.34 1441.74C3005.4 1443.27 3004.9 1445.17 3004.84 1447.46Z" fill="#5C47EF"/>
<path d="M3085.54 1504.63V1414.57H3122.2V1427.23C3125.96 1422.36 3130.33 1418.58 3135.33 1415.88C3140.38 1413.13 3145.58 1411.75 3150.93 1411.75C3154.39 1411.75 3158.06 1412.34 3161.94 1413.51C3165.82 1414.68 3169.02 1416.21 3171.55 1418.08L3156.21 1448.87C3154.04 1447.22 3151.45 1445.91 3148.46 1444.91C3145.52 1443.91 3142.82 1443.41 3140.35 1443.41C3137.24 1443.41 3134.27 1444.23 3131.45 1445.88C3128.69 1447.46 3126.46 1449.54 3124.75 1452.12C3123.05 1454.7 3122.2 1457.49 3122.2 1460.48V1504.63H3085.54Z" fill="#5C47EF"/>
<path fill-rule="evenodd" clip-rule="evenodd" d="M3351.73 1365.12C3359.38 1357.48 3371.78 1357.48 3379.43 1365.12L3452.57 1438.12C3460.22 1445.75 3460.22 1458.13 3452.57 1465.76L3379.43 1538.77C3371.78 1546.4 3359.38 1546.4 3351.73 1538.77C3344.08 1531.14 3344.08 1518.76 3351.73 1511.13L3391.45 1471.49H3249.29V1432.4H3391.45L3351.73 1392.76C3344.08 1385.12 3344.08 1372.75 3351.73 1365.12ZM3367.99 1376.53C3366.66 1375.2 3364.5 1375.2 3363.17 1376.53C3361.84 1377.86 3361.84 1380.01 3363.17 1381.34L3430.5 1448.54H3265.47V1455.34H3430.5L3363.17 1522.54C3361.84 1523.87 3361.84 1526.02 3363.17 1527.35C3364.5 1528.68 3366.66 1528.68 3367.99 1527.35L3441.13 1454.35C3442.46 1453.02 3442.46 1450.87 3441.13 1449.54L3367.99 1376.53Z" fill="#5C47EF"/>
<path d="M3363.17 1376.53C3364.5 1375.2 3366.66 1375.2 3367.99 1376.53L3441.13 1449.54C3442.46 1450.87 3442.46 1453.02 3441.13 1454.35L3367.99 1527.35C3366.66 1528.68 3364.5 1528.68 3363.17 1527.35C3361.84 1526.02 3361.84 1523.87 3363.17 1522.54L3430.5 1455.34H3265.47V1448.54H3430.5L3363.17 1381.34C3361.84 1380.01 3361.84 1377.86 3363.17 1376.53Z" fill="#5C47EF"/>
</svg>
